<svg width="71" height="95" viewBox="0 0 71 95" fill="none" xmlns="http://www.w3.org/2000/svg">
<path d="M1.86364 95V78.8182L35.8182 49.0909C38.3636 46.7879 40.5303 44.6818 42.3182 42.7727C44.1061 40.8333 45.4697 38.8939 46.4091 36.9545C47.3485 34.9848 47.8182 32.8485 47.8182 30.5455C47.8182 27.9697 47.2576 25.7727 46.1364 23.9545C45.0152 22.1061 43.4697 20.6818 41.5 19.6818C39.5303 18.6818 37.2727 18.1818 34.7273 18.1818C32.1515 18.1818 29.8939 18.7121 27.9545 19.7727C26.0152 20.803 24.5 22.303 23.4091 24.2727C22.3485 26.2424 21.8182 28.6364 21.8182 31.4545H0.5C0.5 25.1212 1.92424 19.6515 4.77273 15.0455C7.62121 10.4394 11.6212 6.89394 16.7727 4.40909C21.9545 1.89394 27.9697 0.63636 34.8182 0.63636C41.8788 0.63636 48.0152 1.81818 53.2273 4.18182C58.4394 6.54545 62.4697 9.84848 65.3182 14.0909C68.197 18.303 69.6364 23.197 69.6364 28.7727C69.6364 32.3182 68.9242 35.8333 67.5 39.3182C66.0758 42.803 63.5152 46.6515 59.8182 50.8636C56.1515 55.0758 50.9394 60.1212 44.1818 66L33.0455 76.2727V76.8636H70.7727V95H1.86364Z" fill="black" fill-opacity="0.1"/>
</svg>
