<svg width="75" height="97" viewBox="0 0 75 97" fill="none" xmlns="http://www.w3.org/2000/svg">
<path d="M37.2727 96.2727C30.1818 96.2727 23.8939 95.0606 18.4091 92.6364C12.9545 90.1818 8.65152 86.803 5.5 82.5C2.34848 78.197 0.742424 73.2424 0.681818 67.6364H23.3182C23.4091 69.6667 24.0606 71.4697 25.2727 73.0455C26.4849 74.5909 28.1364 75.803 30.2273 76.6818C32.3182 77.5606 34.697 78 37.3636 78C40.0303 78 42.3788 77.5303 44.4091 76.5909C46.4697 75.6212 48.0758 74.303 49.2273 72.6364C50.3788 70.9394 50.9394 69 50.9091 66.8182C50.9394 64.6364 50.3182 62.697 49.0455 61C47.7727 59.303 45.9697 57.9848 43.6364 57.0455C41.3333 56.1061 38.6061 55.6364 35.4545 55.6364H26.4091V39.6364H35.4545C38.2121 39.6364 40.6364 39.1818 42.7273 38.2727C44.8485 37.3636 46.5 36.0909 47.6818 34.4545C48.8636 32.7879 49.4394 30.8788 49.4091 28.7273C49.4394 26.6364 48.9394 24.803 47.9091 23.2273C46.9091 21.6212 45.5 20.3788 43.6818 19.5C41.8939 18.6212 39.8182 18.1818 37.4545 18.1818C34.9697 18.1818 32.7121 18.6212 30.6818 19.5C28.6818 20.3788 27.0909 21.6212 25.9091 23.2273C24.7273 24.8333 24.1061 26.697 24.0455 28.8182H2.54545C2.60606 23.2727 4.15152 18.3939 7.18182 14.1818C10.2121 9.93939 14.3333 6.62121 19.5455 4.22727C24.7879 1.83333 30.7576 0.63636 37.4545 0.63636C44.1212 0.63636 49.9849 1.80303 55.0455 4.13636C60.1061 6.46969 64.0455 9.65151 66.8636 13.6818C69.6818 17.6818 71.0909 22.2121 71.0909 27.2727C71.1212 32.5151 69.4091 36.8333 65.9545 40.2273C62.5303 43.6212 58.1212 45.7121 52.7273 46.5V47.2273C59.9394 48.0758 65.3788 50.4091 69.0455 54.2273C72.7424 58.0455 74.5758 62.8182 74.5455 68.5455C74.5455 73.9394 72.9545 78.7273 69.7727 82.9091C66.6212 87.0606 62.2273 90.3333 56.5909 92.7273C50.9849 95.0909 44.5455 96.2727 37.2727 96.2727Z" fill="black" fill-opacity="0.1"/>
</svg>
