<svg width="44" height="42" viewBox="0 0 44 42" fill="none" xmlns="http://www.w3.org/2000/svg">
<g clip-path="url(#clip0_1165_27561)">
<path d="M34.1921 24.3816C34.1921 24.2866 34.1446 24.1441 34.1446 24.0017V18.5404C34.1446 17.9706 34.5246 17.4957 35.0469 17.3532C35.0469 17.2107 35.0469 17.1158 35.0469 16.9733C35.1894 15.3112 36.4241 13.8865 38.0387 13.4591C38.3712 13.3641 38.7036 13.3166 39.0835 13.3166C35.9017 6.14578 28.7309 1.15942 20.4203 1.15942C9.1179 1.15942 0 10.3248 0 21.5797C0 32.8821 9.16539 42 20.4203 42C30.2505 42 38.4187 35.0666 40.4132 25.8537H36.0917C35.1419 25.9012 34.3821 25.2839 34.1921 24.3816Z" fill="#1D6799"/>
<path d="M35.9966 18.2555C35.9966 18.1605 35.9966 18.113 35.9966 18.018C35.9966 17.6856 35.9966 17.3532 35.9966 17.0208C36.1391 15.7386 37.0414 14.6938 38.2761 14.3614C40.0807 13.8865 41.8853 15.0737 42.1702 16.8783C42.2177 17.1157 42.2177 17.3532 42.2177 17.5431C42.2177 17.7806 42.2177 17.9706 42.2177 18.208C42.2652 18.208 42.2652 18.208 42.3127 18.208C42.4552 18.208 42.6451 18.208 42.7876 18.208C43.025 18.208 43.0725 18.303 43.0725 18.5404C43.0725 19.1103 43.0725 19.6802 43.0725 20.25C43.0725 21.4847 43.0725 22.7195 43.0725 23.9542C43.0725 24.1916 42.9775 24.4291 42.8351 24.619C42.6451 24.809 42.4077 24.904 42.1702 24.904C41.1255 24.904 40.0807 24.904 39.0359 24.904C38.0387 24.904 37.0414 24.904 36.0441 24.904C35.5692 24.904 35.2368 24.619 35.1418 24.1441C35.1418 24.0966 35.1418 24.0017 35.1418 23.9542C35.1418 22.1496 35.1418 20.2975 35.1418 18.4929C35.1418 18.303 35.2368 18.208 35.4268 18.208C35.5692 18.2555 35.8067 18.2555 35.9966 18.2555ZM40.8405 18.2555C40.8405 18.208 40.8405 18.113 40.8405 18.0655C40.8405 17.7806 40.8405 17.4482 40.8405 17.1632C40.7456 16.3559 40.0807 15.7386 39.2734 15.6436C38.2286 15.5486 37.3738 16.3559 37.3738 17.4007C37.3738 17.6381 37.3738 17.9231 37.3738 18.1605C37.3738 18.208 37.3738 18.208 37.3738 18.2555C38.5136 18.2555 39.7008 18.2555 40.8405 18.2555ZM39.1309 23.1469C39.2734 23.1469 39.4159 23.1469 39.5583 23.1469C39.7008 23.1469 39.7958 23.0519 39.7483 22.9094C39.7008 22.5295 39.6533 22.1496 39.6058 21.7697C39.6058 21.7222 39.6058 21.6747 39.6533 21.6272C40.0332 21.2948 40.0332 20.7249 39.7008 20.3925C39.3684 20.0126 38.7985 20.0126 38.4661 20.3925C38.1337 20.7724 38.1811 21.3423 38.5136 21.6272C38.5611 21.6747 38.5611 21.6747 38.5611 21.7222C38.5136 22.1021 38.4661 22.482 38.4186 22.9094C38.4186 23.0519 38.4661 23.1469 38.656 23.1469C38.846 23.1469 38.9885 23.1469 39.1309 23.1469Z" fill="#F7BC37"/>
<path d="M16.5736 0.0196704C17.2385 0.0196704 17.7609 0.58954 17.7134 1.25439C17.6659 2.29915 17.7609 8.66268 17.6659 12.0344C17.6659 12.3668 17.8559 12.5093 18.0458 12.6993C21.5125 16.2134 30.8679 26.3286 34.4295 29.5104C34.8095 29.8428 34.9994 30.3652 35.2369 30.8401C35.4743 31.2675 35.6643 31.7424 35.9492 32.0748C36.4241 32.5497 36.4716 33.262 36.0917 33.7369V33.7844C36.0442 33.8794 35.9492 33.9744 35.9967 34.0693C36.0917 34.8766 36.1866 35.684 36.2816 36.4913L35.3318 36.8237C35.1419 37.3936 35.4268 37.821 35.7592 38.2484C35.9967 38.4858 36.0442 38.7707 35.9967 39.1032V39.1507C35.9017 39.5306 35.4743 39.768 35.0944 39.5306C34.9519 39.4356 34.8095 39.3881 34.667 39.3881C32.8149 39.4831 30.9628 39.6255 29.0633 39.7205C28.5409 39.768 28.0185 39.768 27.4486 39.768C27.3537 39.768 27.1637 39.7205 27.1162 39.6255C26.5464 38.8182 25.929 38.0109 25.6916 37.0137C25.6441 36.8237 25.5016 36.6812 25.3591 36.5388C25.1692 36.3488 24.9792 36.2063 24.7893 36.0164C24.3619 35.5415 23.887 35.3041 23.2221 35.399C23.0322 35.4465 22.9372 35.3515 22.8897 35.1141C22.8422 34.8292 22.6997 34.5442 22.6523 34.2593C22.6048 33.9744 22.4623 33.9269 22.2248 33.9269C21.7025 33.9269 21.1801 33.9269 20.6577 33.8794C20.5152 33.8794 20.3728 33.7369 20.2778 33.6419C19.8504 33.167 19.4705 32.6447 19.0431 32.1698C18.9956 32.0748 18.8056 32.0748 18.7107 32.0748C18.6157 32.0748 18.5207 32.1223 18.4257 32.1698C17.9033 32.4547 17.3335 32.6447 16.7636 32.3122C16.6686 32.2647 16.5262 32.2647 16.3837 32.2647C15.8613 32.3122 15.5764 32.0273 15.5289 31.5049C15.5289 31.0775 15.5289 30.6976 15.4814 30.3177C15.3389 29.4154 14.8166 28.6556 14.1992 28.0382C13.7243 27.5158 13.3919 26.9935 13.3444 26.3286C13.3444 26.1387 13.2019 25.9487 13.0595 25.8062C12.7745 25.5213 12.5371 25.2364 12.2521 24.9514C11.7298 24.4291 11.7298 23.5742 12.2521 23.0519C12.2521 23.0519 12.2521 23.0519 12.2521 23.0044C12.2521 23.0044 9.78271 19.2053 9.68773 18.6829C9.64025 18.1605 9.35531 17.923 8.78544 17.6856C7.97813 17.3532 8.21557 16.5934 8.26306 16.166C8.26306 16.0235 8.21558 15.8335 8.1206 15.786C7.50324 15.2162 6.83839 14.6938 6.26852 14.0764C5.98359 13.744 5.84112 13.2691 5.69865 12.7942C5.65116 12.6518 5.84112 12.3668 5.98359 12.2244C6.26852 11.8919 6.22103 11.5595 6.03108 11.1321C5.60368 9.75493 5.17627 9.04259 4.89134 8.47272C4.55892 7.85537 4.41645 7.14303 4.55892 6.43069C4.79636 5.05351 5.22376 3.10646 5.03381 2.63157C4.89134 2.25166 4.93883 2.0617 5.0813 1.34936C5.22376 0.447072 5.31874 0.0196704 6.31601 0.0196704C7.31328 0.0196704 8.92791 0.0196715 11.1599 0.0671605C13.2969 0.0196715 15.9563 -0.0278187 16.5736 0.0196704Z" fill="#29ABE2"/>
<path d="M7.74077 22.767L9.7828 23.3843C9.64033 23.9542 9.45038 24.4291 9.11795 24.809C8.78553 25.1889 8.45311 25.4738 8.0257 25.6638C7.5983 25.8537 7.02843 25.9487 6.36359 25.9487C5.55627 25.9487 4.89142 25.8537 4.36905 25.6163C3.84667 25.3789 3.41926 24.9515 3.03935 24.3816C2.65944 23.7642 2.46948 23.0044 2.46948 22.1021C2.46948 20.8674 2.80191 19.9176 3.46675 19.2528C4.1316 18.5879 5.08138 18.2555 6.26861 18.2555C7.21839 18.2555 7.97821 18.4455 8.50059 18.8254C9.02297 19.2053 9.45037 19.7751 9.68782 20.5825L7.64579 21.0573C7.55081 20.8199 7.50332 20.6774 7.40835 20.535C7.26588 20.345 7.12341 20.2025 6.93346 20.1076C6.7435 20.0126 6.55354 19.9651 6.3161 19.9651C5.79372 19.9651 5.36631 20.1551 5.12887 20.5825C4.93891 20.9149 4.79645 21.3898 4.79645 22.0546C4.79645 22.9094 4.93891 23.4793 5.17636 23.7642C5.41381 24.0492 5.79372 24.2391 6.22112 24.2391C6.64852 24.2391 6.98094 24.0967 7.21839 23.8592C7.50332 23.5743 7.64579 23.2418 7.74077 22.767Z" fill="white"/>
<path d="M15.6714 22.767L17.7135 23.3843C17.571 23.9542 17.381 24.4291 17.0486 24.809C16.7162 25.1889 16.3838 25.4738 15.9564 25.6638C15.529 25.8537 14.9591 25.9487 14.2943 25.9487C13.4869 25.9487 12.8221 25.8537 12.2997 25.6163C11.7773 25.3789 11.3499 24.9515 10.97 24.3816C10.5901 23.7642 10.4001 23.0044 10.4001 22.1021C10.4001 20.8674 10.7326 19.9176 11.3974 19.2528C12.0623 18.5879 13.012 18.2555 14.1993 18.2555C15.1491 18.2555 15.9089 18.4455 16.4313 18.8254C16.9536 19.2053 17.381 19.7751 17.6185 20.5825L15.5765 21.0573C15.4815 20.8199 15.434 20.6774 15.339 20.535C15.1965 20.345 15.0541 20.2025 14.8641 20.1076C14.6742 20.0126 14.4842 19.9651 14.2468 19.9651C13.7244 19.9651 13.297 20.1551 13.0595 20.5825C12.8696 20.9149 12.7271 21.3898 12.7271 22.0546C12.7271 22.9094 12.8696 23.4793 13.107 23.7642C13.3445 24.0492 13.7244 24.2391 14.1518 24.2391C14.5792 24.2391 14.9116 24.0967 15.1491 23.8592C15.434 23.5743 15.5765 23.2418 15.6714 22.767Z" fill="white"/>
<path d="M18.6157 18.303H22.4623C23.3171 18.303 23.9345 18.4929 24.3619 18.9203C24.7893 19.3002 24.9793 19.8701 24.9793 20.6299C24.9793 21.3898 24.7418 21.9596 24.3144 22.387C23.8395 22.8144 23.1747 23.0044 22.2249 23.0044H20.9427V25.8062H18.6157V18.303ZM20.9427 21.5322H21.5126C21.94 21.5322 22.2724 21.4373 22.4623 21.2948C22.6523 21.1523 22.7473 20.9624 22.7473 20.6774C22.7473 20.44 22.6523 20.25 22.5098 20.0601C22.3674 19.9176 22.0349 19.8226 21.6075 19.8226H20.9427V21.5322Z" fill="white"/>
<path d="M29.7283 24.5715H27.1164L26.7365 25.8062H24.3621L27.1639 18.303H29.6808L32.4827 25.8062H30.0607L29.7283 24.5715ZM29.2534 22.9569L28.4461 20.25L27.6388 22.9569H29.2534Z" fill="white"/>
</g>
<defs>
<clipPath id="clip0_1165_27561">
<rect width="43.0726" height="42" fill="white"/>
</clipPath>
</defs>
</svg>
