<svg width="60" height="42" viewBox="0 0 60 42" fill="none" xmlns="http://www.w3.org/2000/svg">
<g clip-path="url(#clip0_1165_27580)">
<path d="M27.1625 23.31C27.6875 20.265 30.575 17.745 33.5675 17.745C35.4575 17.745 36.98 18.69 37.6625 20.1075L35.51 21.42C35.09 20.5275 34.355 20.0025 33.2525 20.0025C31.4675 20.0025 29.8925 21.4725 29.5775 23.2575C29.2625 25.0425 30.26 26.5125 32.0975 26.5125C33.2 26.5125 34.145 25.9875 34.88 25.095L36.56 26.4075C35.3525 27.825 33.515 28.77 31.625 28.77C28.6325 28.875 26.6375 26.355 27.1625 23.31Z" fill="#1D6799"/>
<path d="M37.82 25.5675H40.2875C40.1825 26.25 40.76 26.775 41.6 26.775C42.3875 26.775 43.07 26.355 43.175 25.6725C43.2275 25.2525 43.07 24.885 42.1775 24.57L40.97 24.15C38.7125 23.52 38.5025 22.05 38.7125 21.0525C39.08 19.11 40.97 17.745 43.07 17.745C45.1175 17.745 46.4825 18.9525 46.1675 21.0525H43.7C43.805 20.4225 43.49 19.845 42.65 19.845C41.915 19.845 41.285 20.37 41.18 20.9475C41.1275 21.1575 41.1275 21.63 42.0725 21.945L43.1225 22.3125C44.54 22.785 46.01 23.5725 45.6425 25.515C45.2225 27.825 43.07 28.875 41.075 28.875C38.8175 28.875 37.4525 27.5625 37.82 25.5675Z" fill="#1D6799"/>
<path d="M53.0974 26.1975H53.1499L53.5174 28.7175H56.0899L54.0424 17.955H51.3649L45.4849 28.7175H48.1099L52.2574 20.265L53.0974 26.1975Z" fill="#1D6799"/>
<path d="M23.2249 38.64H25.6924C25.5874 39.3225 26.1649 39.8475 27.0049 39.8475C27.7924 39.8475 28.4749 39.4275 28.5799 38.745C28.6324 38.325 28.4749 37.9575 27.5824 37.6425L26.3749 37.275C24.1174 36.645 23.9074 35.175 24.1174 34.1775C24.4849 32.235 26.3749 30.87 28.4749 30.87C30.5224 30.87 31.8874 32.0775 31.5724 34.1775H29.1049C29.2099 33.5475 28.8949 32.97 28.0549 32.97C27.3199 32.97 26.6899 33.495 26.5849 34.0725C26.5324 34.2825 26.5324 34.755 27.4774 35.07L28.5274 35.4375C29.945 35.91 31.4149 36.6975 31.0474 38.64C30.6274 40.95 28.4749 42 26.4799 42C24.2749 41.9475 22.9099 40.5825 23.2249 38.64Z" fill="#1D6799"/>
<path d="M41.285 31.0275L40.9175 33.18H38.0825L36.56 41.79H34.0925L35.615 33.18H32.78L33.1475 31.0275H41.285Z" fill="#1D6799"/>
<path d="M46.6924 41.7375L46.3249 39.2175H42.5449L41.3374 41.7375H38.7124L44.5924 30.975H47.2699L49.3699 41.7375H46.6924ZM43.5949 37.1175H46.0099L45.4849 33.3375L43.5949 37.1175Z" fill="#1D6799"/>
<path d="M56.5624 37.8525L58.6624 41.79H55.8274L54.0424 38.01H53.5699L52.8874 41.79H50.4199L52.3099 31.0275H56.7199C59.2399 31.0275 60.0274 32.8125 59.7124 34.5975C59.4499 36.0675 58.3999 37.38 56.5624 37.8525ZM55.9849 33.1275H54.3574L53.8324 36.015H55.3549C56.4574 36.015 57.0349 35.3325 57.1399 34.5975C57.3499 33.915 56.9824 33.1275 55.9849 33.1275Z" fill="#1D6799"/>
<path d="M15.2976 37.7475L13.9851 37.065C16.0851 33.0225 19.2351 26.9325 25.2201 24.045C28.4226 22.5225 32.6751 22.365 37.9251 22.365H56.9826V23.835H37.9251C32.8851 23.835 28.7376 23.94 25.8501 25.3575C20.3376 28.035 17.2926 33.8625 15.2976 37.7475Z" fill="#6AB4E5"/>
<path d="M0.0725098 19.6875C0.59751 19.5825 1.12251 19.425 1.59501 19.32C3.80001 18.795 6.00501 18.27 8.21001 17.745C10.5725 17.1675 12.9875 16.6425 15.35 16.065C15.5075 16.0125 15.56 15.96 15.6125 15.75C15.875 12.4425 16.1375 9.1875 16.4525 5.88C16.61 3.99 16.7675 2.1525 16.925 0.2625C16.925 0.21 16.925 0.105 16.9775 0C17.135 0.2625 17.2925 0.472501 17.3975 0.735001C19.97 4.9875 22.5425 9.24 25.115 13.4925C25.22 13.65 25.325 13.7025 25.535 13.65C28.8425 12.8625 32.15 12.075 35.4575 11.34C35.51 11.34 35.615 11.2875 35.72 11.34C35.3 11.55 34.88 11.76 34.46 11.97C30.995 13.755 27.4775 15.54 24.0125 17.325C23.6975 17.4825 23.6975 17.4825 23.54 17.1675C22.2275 15.015 20.9675 12.8625 19.655 10.7625C19.6025 10.6575 19.55 10.605 19.445 10.5525C19.445 10.7625 19.3925 11.025 19.3925 11.235C19.1825 13.65 18.9725 16.0125 18.815 18.4275C18.815 18.585 18.7625 18.69 18.605 18.69C17.5025 18.9525 16.4 19.215 15.2975 19.4775C14.4575 19.6875 13.67 19.845 12.83 20.055C12.2525 20.2125 11.675 20.3175 11.0975 20.475C11.045 20.475 10.94 20.5275 10.8875 20.58C13.4075 21.63 15.875 22.68 18.395 23.73C18.185 26.46 17.9225 29.1375 17.7125 31.815C17.7125 31.815 17.765 31.815 17.765 31.8675C19.1825 30.1875 20.6 28.56 22.07 26.88C22.07 26.88 22.1225 26.88 22.1225 26.9325C17.87 32.7075 16.295 36.54 13.5125 41.79H13.46C13.5125 41.2125 13.565 40.635 13.6175 40.0575C13.8275 37.3275 14.09 34.5975 14.3 31.815C14.4575 29.925 14.615 28.035 14.7725 26.1975C14.7725 25.9875 14.7725 25.8825 14.5625 25.7775C13.4075 25.305 12.305 24.8325 11.2025 24.36C7.58001 22.8375 3.95751 21.315 0.33501 19.7925C0.23001 19.7925 0.12501 19.74 0.0725098 19.6875Z" fill="#6AB4E5"/>
</g>
<defs>
<clipPath id="clip0_1165_27580">
<rect width="59.7058" height="42" fill="white" transform="translate(0.0725098)"/>
</clipPath>
</defs>
</svg>
