<svg width="32" height="33" viewBox="0 0 32 33" fill="none" xmlns="http://www.w3.org/2000/svg">
<g clip-path="url(#clip0_1162_26701)">
<path d="M0 15.8222C0.257573 14.5163 0.42138 13.1821 0.791923 11.9089C1.74878 8.62487 3.65346 5.97458 6.41898 3.95241C9.06474 2.01949 12.0201 0.997103 15.303 0.949656C15.582 0.945137 15.8622 0.976769 16.1672 0.993714C16.1672 1.13606 16.1785 1.24451 16.1649 1.34957C16.0554 2.26802 16.0531 2.24656 15.1505 2.2861C10.7322 2.47702 7.1081 4.30601 4.43296 7.80357C1.24267 11.9778 0.581797 16.6367 2.36786 21.5622C3.57325 24.8847 5.81572 27.3904 8.94952 29.068C9.08169 29.1392 9.21387 29.2115 9.34604 29.2838C9.87474 29.5696 10.0137 30.1819 9.60361 30.6055C9.51098 30.7004 9.20257 30.697 9.06249 30.6179C8.05479 30.0418 6.99174 29.5267 6.08233 28.8172C3.8489 27.0707 2.1261 24.8836 1.15795 22.2028C0.676693 20.8709 0.448492 19.4474 0.109581 18.0647C0.0655228 17.8828 0.0361505 17.6986 0 17.5168C0 16.9519 0 16.3871 0 15.8222Z" fill="#2AA6F8"/>
<path d="M29.9541 16.4796C29.6886 10.8989 27.2214 6.70205 22.3625 3.94783C22.2642 3.89248 22.1637 3.84051 22.0654 3.78516C21.5977 3.52533 21.4847 2.81813 21.8925 2.46114C21.9931 2.37303 22.2981 2.40127 22.4337 2.49052C23.717 3.33553 25.1257 4.05629 26.2317 5.09561C30.728 9.32071 32.1582 14.5783 30.6918 20.4878C29.2989 26.0979 25.5449 29.6836 20.1065 31.4584C18.8073 31.8832 17.3703 31.8978 15.9932 32.065C15.7503 32.0944 15.3278 32.2232 15.3143 31.7239C15.2962 31.0845 15.4837 30.863 16.0056 30.7828C17.2472 30.5908 18.5373 30.5388 19.7179 30.1536C25.2308 28.354 28.6177 24.6079 29.6954 18.8656C29.8434 18.0748 29.8739 17.2603 29.9564 16.4796H29.9541Z" fill="#2AA6F8"/>
<path d="M21.2441 19.7648C20.8453 19.7434 20.4228 19.5412 20.2036 19.078C20.0522 18.7583 19.8602 18.643 19.5134 18.6442C16.7467 18.6498 13.9801 18.6453 11.2134 18.6306C10.8565 18.6284 10.6373 18.7368 10.4362 19.0497C10.0611 19.6327 9.24776 19.7219 8.7586 19.287C8.28073 18.8622 8.24119 18.1143 8.67387 17.6726C9.18111 17.1552 9.95947 17.1733 10.3933 17.7743C10.6407 18.1155 10.8994 18.2793 11.3174 18.2781C14.0648 18.2714 16.8134 18.2894 19.5608 18.2612C19.7664 18.2589 20.0127 18.0025 20.1641 17.8059C20.4906 17.3778 20.8577 17.049 21.4282 17.0965C21.9807 17.1417 22.376 17.441 22.5941 17.9517C22.9578 18.8023 22.2992 19.7581 21.2452 19.766L21.2441 19.7648Z" fill="#2AA6F8"/>
<path d="M8.79023 14.5151C8.79136 13.8972 9.14157 13.4284 9.72901 13.2589C10.2679 13.103 10.9446 13.3075 11.2055 13.8068C11.4473 14.2723 11.7919 14.3592 12.2584 14.3581C14.9098 14.3479 17.5613 14.3502 20.2127 14.3592C20.5572 14.3604 20.799 14.2915 20.9989 13.9616C21.2983 13.469 21.8666 13.3075 22.3783 13.4973C22.8562 13.6746 23.0912 14.0486 23.0991 14.5411C23.1081 15.0777 22.7827 15.4133 22.3128 15.6019C21.8394 15.7917 21.3141 15.6211 21.0046 15.106C20.7922 14.7524 20.5358 14.697 20.1731 14.6981C17.5409 14.7083 14.9076 14.714 12.2754 14.6948C11.7986 14.6914 11.4834 14.7863 11.2293 15.237C10.8904 15.8369 10.3165 16.0165 9.73466 15.8324C9.12462 15.6392 8.79023 15.1726 8.79249 14.5163L8.79023 14.5151Z" fill="#2AA6F8"/>
<path d="M15.7503 8.34249C14.6929 8.34927 13.814 7.4794 13.7948 6.40731C13.7756 5.36685 14.6703 4.45292 15.7187 4.44501C16.7648 4.43598 17.6731 5.33183 17.6776 6.37681C17.6833 7.42856 16.7919 8.33684 15.7503 8.34249Z" fill="#2AA6F8"/>
<path d="M17.6663 26.7047C17.6652 27.7689 16.7874 28.6308 15.7153 28.6229C14.6669 28.615 13.8118 27.7644 13.8027 26.7194C13.7937 25.6733 14.6918 24.7514 15.7266 24.7447C16.7456 24.7379 17.6674 25.6688 17.6663 26.7036V26.7047Z" fill="#2AA6F8"/>
<path d="M12.5725 9.15128C13.3011 9.07559 13.6943 9.53651 13.979 10.0867C14.1552 10.4267 14.3664 10.5205 14.7302 10.5137C15.9333 10.4911 17.1387 10.5216 18.3419 10.4911C18.5848 10.4855 18.8638 10.351 19.0547 10.1906C19.4512 9.85735 19.8444 9.78843 20.163 10.0799C20.4522 10.3442 20.4736 10.8368 20.2081 11.1554C19.9246 11.4965 19.5721 11.4751 19.1123 11.1802C18.8627 11.0198 18.5452 10.8922 18.2538 10.8831C17.1636 10.8492 16.0712 10.8944 14.981 10.8583C14.4444 10.8413 14.101 10.9611 13.8072 11.4706C13.3328 12.293 12.3352 12.3935 11.558 11.7925C10.9434 11.3169 10.844 10.2019 11.4337 9.62576C11.7184 9.34785 12.1454 9.21454 12.5081 9.01685C12.5295 9.0609 12.551 9.10609 12.5725 9.15015V9.15128Z" fill="#2AA6F8"/>
<path d="M20.4104 22.3157C20.4171 22.9913 20.024 23.5426 19.3733 23.7719C18.7847 23.9798 18.0606 23.8148 17.7499 23.2183C17.3974 22.5439 16.8913 22.4422 16.2372 22.4603C15.4114 22.4829 14.5834 22.4513 13.7564 22.4569C13.2209 22.4603 12.7047 22.4275 12.2663 22.9043C11.9794 23.2172 11.5083 23.163 11.2191 22.8026C10.9355 22.449 10.983 22.0446 11.3151 21.7373C11.6642 21.4153 12.0008 21.4865 12.359 21.8028C12.5567 21.9779 12.8628 22.1124 13.1238 22.1191C14.2885 22.153 15.4555 22.1101 16.6202 22.1451C17.089 22.1587 17.3658 22.0355 17.5997 21.6051C17.9781 20.9081 18.6435 20.655 19.31 20.8493C19.9811 21.0459 20.4058 21.6096 20.4126 22.3146L20.4104 22.3157Z" fill="#2AA6F8"/>
<path d="M20.4183 2.05452C20.4126 2.87242 19.7676 3.52878 18.9689 3.53104C18.1238 3.5333 17.4969 2.8792 17.5138 2.01385C17.5296 1.24339 18.2571 0.493267 18.9824 0.500046C19.684 0.506824 20.4239 1.30778 20.4183 2.05452Z" fill="#2AA6F8"/>
<path d="M12.4934 32.5001C11.68 32.4944 11.0575 31.8392 11.0745 31.0044C11.0914 30.1729 11.6778 29.5821 12.4923 29.5775C13.326 29.573 13.9552 30.1989 13.9518 31.0303C13.9485 31.846 13.2932 32.5046 12.4934 32.5001Z" fill="#2AA6F8"/>
</g>
<defs>
<clipPath id="clip0_1162_26701">
<rect width="31.2454" height="32" fill="white" transform="translate(0 0.5)"/>
</clipPath>
</defs>
</svg>
