<svg width="34" height="42" viewBox="0 0 34 42" fill="none" xmlns="http://www.w3.org/2000/svg">
<g clip-path="url(#clip0_1165_27607)">
<path d="M17.1809 42C8.103 42 0.77832 34.6364 0.77832 25.5974V16.4026C0.77832 7.32468 8.14196 0 17.1809 0C26.2588 0 33.5835 7.36364 33.5835 16.4026V25.5584C33.6225 34.6364 26.2588 42 17.1809 42Z" fill="#1D6799"/>
<path d="M6.93408 31.987V27.0389H10.3237V27.8961H7.90811V29.0649H9.97304V29.9221H7.90811V32.026H6.93408V31.987Z" fill="white"/>
<path d="M11.1418 31.987V27.0389H12.1548V31.987H11.1418Z" fill="white"/>
<path d="M12.8562 30.3506L13.8302 30.2727C13.9081 30.5844 14.025 30.8571 14.1809 30.974C14.3757 31.1298 14.6094 31.2077 14.9211 31.2077C15.2328 31.2077 15.5056 31.1298 15.6614 31.0129C15.8172 30.896 15.8952 30.7012 15.8952 30.5454C15.8952 30.4285 15.8562 30.3116 15.7783 30.2337C15.7004 30.1558 15.5835 30.0779 15.4276 29.9999C15.3107 29.961 15.038 29.8831 14.6094 29.7662C14.064 29.6493 13.7133 29.4545 13.4796 29.2597C13.1679 28.987 13.012 28.6363 13.012 28.2467C13.012 28.0129 13.09 27.7402 13.2458 27.5454C13.4017 27.3116 13.5965 27.1558 13.8692 27.0389C14.1419 26.922 14.4536 26.8831 14.8432 26.8831C15.4666 26.8831 15.9341 26.9999 16.2458 27.2727C16.5575 27.5454 16.7133 27.896 16.7523 28.3636L15.7393 28.4025C15.7004 28.1298 15.6224 27.974 15.4666 27.8571C15.3107 27.7402 15.1159 27.7012 14.8432 27.7012C14.5705 27.7012 14.3367 27.7792 14.1419 27.896C14.025 27.974 13.9861 28.0908 13.9861 28.2077C13.9861 28.3246 14.025 28.4415 14.1419 28.5194C14.2588 28.6363 14.5705 28.7532 15.077 28.8701C15.5445 28.987 15.9341 29.1038 16.1679 29.2207C16.4017 29.3376 16.5965 29.4934 16.7133 29.7272C16.8302 29.922 16.9082 30.1947 16.9082 30.5064C16.9082 30.7792 16.8302 31.0519 16.6744 31.2857C16.5185 31.5194 16.2848 31.7142 16.012 31.8311C15.7393 31.948 15.3497 32.0259 14.9211 32.0259C14.2978 32.0259 13.8302 31.8701 13.4796 31.5973C13.1289 31.3246 12.8952 30.935 12.8562 30.3506Z" fill="white"/>
<path d="M17.6873 31.987V27.0389H19.1678L20.0639 30.4285L20.96 27.0389H22.4795V31.987H21.5444V28.0909L20.5704 31.987H19.5963L18.6223 28.0909V31.987H17.6873Z" fill="white"/>
<path d="M27.9731 31.987H26.8822L26.4536 30.8571H24.4666L24.038 31.987H22.9861L24.9341 27.0389H25.9861L27.9731 31.987ZM26.103 30L25.4017 28.1688L24.7393 30H26.103Z" fill="white"/>
<path d="M3.03803 19.5585L3.38868 20.6494H4.55752L3.62245 21.3507L3.9731 22.4416L3.03803 21.7792L2.10297 22.4416L2.45362 21.3507L1.51855 20.6494H2.68739L3.03803 19.5585Z" fill="white"/>
<path d="M31.3627 19.5585L31.7134 20.6494H32.8822L31.9472 21.3507L32.2978 22.4416L31.3627 21.7792L30.4277 22.4416L30.7783 21.3507L29.8433 20.6494H31.0121L31.3627 19.5585Z" fill="white"/>
<path d="M25.4406 22.4416C25.5965 22.2857 25.6744 22.0909 25.6354 21.8961C25.5575 21.5455 25.3627 21.2338 25.051 21.039C24.8952 20.9221 24.7393 20.8052 24.5835 20.7273C24.2718 20.5325 23.9991 20.2987 23.6484 20.1818C23.6094 20.1818 23.5705 20.1039 23.5705 20.065C23.5705 19.987 23.5705 19.8702 23.6094 19.7922C23.6094 19.3637 23.6094 18.9351 23.6484 18.5065C23.6484 18.4676 23.6874 18.3896 23.7263 18.3507C23.8432 18.2338 23.8822 18.1169 23.8822 17.9611C23.8822 17.7273 23.7653 17.4935 23.6094 17.3377C23.4146 17.1818 23.2198 17.026 23.025 16.9091C22.09 16.3247 21.077 16.013 19.9861 15.8182C18.7004 15.5844 17.4536 15.5065 16.1289 15.6234C15.077 15.7013 14.025 15.8572 13.012 16.1689C12.2328 16.4416 11.4926 16.7533 10.8302 17.3377C10.6744 17.4935 10.5575 17.6494 10.5185 17.8442C10.4796 18.039 10.5185 18.2338 10.6744 18.3507C10.7133 18.3896 10.7523 18.4286 10.7523 18.4676C10.7523 19.013 10.7913 19.5195 10.7913 20.065C10.7913 20.1039 10.7523 20.1818 10.7133 20.1818C10.5185 20.2987 10.2848 20.4156 10.09 20.5715C9.77827 20.7663 9.46658 20.9221 9.23282 21.1948C9.07697 21.3507 8.96009 21.5065 8.88217 21.7013C8.72632 22.052 8.76528 22.3247 9.03801 22.5195C9.11593 22.5974 9.11593 22.6364 9.11593 22.7143C9.11593 23.1039 9.11593 24.5065 9.11593 25.5195C14.5315 24.8961 19.9471 24.8961 25.3237 25.5195C25.3237 24.5844 25.3237 23.1429 25.3237 22.7533C25.3237 22.5585 25.3627 22.5195 25.4406 22.4416ZM10.7133 23.9611C10.7133 24.0779 10.6744 24.1169 10.5965 24.1169C10.4016 24.1559 10.1679 24.2338 9.93412 24.2728C9.93412 23.8442 9.93412 23.4546 9.93412 23.065C9.93412 22.9481 9.93412 22.8312 9.93412 22.7143C9.97308 22.5585 10.09 22.4416 10.2458 22.4026C10.4016 22.3637 10.5575 22.4416 10.6354 22.5974C10.7133 22.7143 10.7133 22.8312 10.7133 22.987C10.7523 23.2987 10.7133 23.6104 10.7133 23.9611ZM16.7913 17.4156C16.7913 17.1818 16.9471 17.026 17.1419 17.026C17.3757 17.026 17.5315 17.1818 17.5315 17.4156C17.5315 17.6494 17.5315 17.8831 17.5315 18.1169C17.5315 18.3507 17.5315 18.5844 17.5315 18.8182C17.5315 18.8961 17.4926 18.9351 17.4146 18.9351C17.2198 18.9351 17.025 18.9351 16.8302 18.9351C16.7523 18.9351 16.7133 18.8961 16.7133 18.8182C16.7913 18.3507 16.7913 17.8831 16.7913 17.4156ZM11.4536 19.4026C11.4536 19.1299 11.4536 18.8572 11.4536 18.5844C11.4536 18.3896 11.5705 18.2728 11.7263 18.2338C11.8822 18.2338 12.038 18.3507 12.038 18.5455C12.038 18.8572 12.038 19.2078 12.038 19.5195C12.038 19.5585 11.999 19.5974 11.9601 19.5974C11.8042 19.6754 11.6094 19.7143 11.4146 19.7922C11.4536 19.6754 11.4536 19.5585 11.4536 19.4026ZM12.3497 23.6104C12.3497 23.6883 12.3107 23.7273 12.2328 23.7663C11.9991 23.8052 11.7653 23.8442 11.5315 23.9221C11.5315 23.8831 11.5315 23.8442 11.5315 23.8052C11.5315 23.2987 11.5315 22.7533 11.5315 22.2468C11.5315 21.9741 11.6484 21.8182 11.8822 21.7403C12.038 21.7013 12.2328 21.7792 12.2718 21.9351C12.3107 22.0909 12.3497 22.2078 12.3497 22.3637C12.3497 22.7533 12.3497 23.1818 12.3497 23.6104ZM12.7003 19.3247C12.7003 18.9351 12.7003 18.5455 12.7003 18.1559C12.7003 18.1169 12.7003 18.1169 12.7003 18.0779C12.7003 17.8831 12.8562 17.7273 13.012 17.7273C13.1679 17.7273 13.3237 17.8442 13.3627 18.039C13.3627 18.1559 13.3627 18.2728 13.3627 18.3896C13.3627 18.6624 13.3627 18.8961 13.3627 19.1689C13.3627 19.2468 13.3237 19.2857 13.2458 19.2857C13.051 19.3247 12.8952 19.3637 12.7003 19.4026C12.7003 19.4026 12.7003 19.3637 12.7003 19.3247ZM13.9081 23.4935C13.6744 23.5325 13.4406 23.5715 13.1679 23.5715C13.1679 23.5325 13.1679 23.4546 13.1679 23.4156C13.1679 22.8312 13.1679 22.2857 13.1679 21.7013C13.1679 21.6234 13.1679 21.5065 13.2068 21.4286C13.2458 21.2728 13.3627 21.1559 13.5575 21.1559C13.7523 21.1559 13.8692 21.2338 13.9471 21.3896C13.9861 21.5065 14.025 21.6234 14.025 21.7403C14.025 22.2857 14.025 22.7922 14.025 23.3377C14.064 23.4546 14.025 23.4935 13.9081 23.4935ZM14.5705 19.0909C14.4146 19.0909 14.2198 19.1299 14.064 19.1689C14.064 19.1299 14.064 19.1299 14.064 19.1299C14.064 18.6234 14.064 18.1559 14.064 17.6494C14.064 17.4546 14.2198 17.3377 14.3757 17.2987C14.5705 17.2987 14.7263 17.4156 14.7263 17.6104C14.7263 17.6883 14.7263 17.8052 14.7263 17.9221C14.7263 18.2338 14.7263 18.5844 14.7263 18.8961C14.7263 19.052 14.6874 19.0909 14.5705 19.0909ZM15.7393 23.3377C15.5055 23.3377 15.2718 23.3766 15.038 23.3766C14.9211 23.3766 14.8822 23.3377 14.8822 23.2208C14.8822 22.9091 14.8822 22.5974 14.8822 22.3247C14.8822 22.013 14.8822 21.7013 14.8822 21.3896C14.8822 21.1948 14.9601 21.039 15.1159 20.9611C15.2718 20.8831 15.4666 20.9221 15.6224 21.039C15.7393 21.1169 15.8172 21.2728 15.8172 21.4286C15.8172 22.013 15.8172 22.6364 15.8172 23.2208C15.8562 23.2987 15.8172 23.3377 15.7393 23.3377ZM16.1289 18.8572C16.1289 18.9351 16.1289 18.9351 16.051 18.9741C15.8562 18.9741 15.6224 19.013 15.3887 19.013C15.3887 18.9351 15.3887 18.8961 15.3887 18.8182C15.3887 18.3896 15.3887 17.9611 15.3887 17.5325C15.3887 17.2987 15.5055 17.1429 15.7393 17.1429C15.9341 17.1429 16.1289 17.2987 16.1289 17.5325C16.1289 17.9611 16.1289 18.3896 16.1289 18.8572ZM17.6874 22.9481C17.6874 23.065 17.6874 23.1818 17.6874 23.2987C17.6484 23.2987 17.6484 23.2987 17.6094 23.2987C17.3367 23.2987 17.064 23.2987 16.7913 23.2987C16.7133 23.2987 16.7133 23.2598 16.7133 23.2208C16.7133 22.5585 16.7133 21.8961 16.7133 21.2728C16.7133 21 16.9471 20.8052 17.1809 20.8442C17.4536 20.8442 17.6874 21.0779 17.6874 21.3896C17.6874 21.8572 17.6874 22.4026 17.6874 22.9481ZM18.2718 18.8572C18.2718 18.3896 18.2718 17.9221 18.2718 17.4546C18.2718 17.2208 18.4666 17.1039 18.6614 17.1039C18.8562 17.1039 18.9731 17.2598 18.9731 17.4935C18.9731 17.9611 18.9731 18.4676 18.9731 18.9351C18.9731 18.9351 18.9731 18.9741 18.9731 19.013C18.7393 19.013 18.5445 18.9741 18.3107 18.9741C18.3107 18.9351 18.2718 18.8961 18.2718 18.8572ZM19.4796 23.3766C19.1679 23.3377 18.8562 23.3377 18.5835 23.2987C18.5835 23.2598 18.5835 23.2208 18.5835 23.1818C18.5835 22.5974 18.5835 22.052 18.5835 21.4676C18.5835 21.3507 18.6224 21.1948 18.7003 21.0779C18.8172 20.9221 19.051 20.8831 19.2068 20.9221C19.3627 21 19.4796 21.1559 19.4796 21.3507C19.4796 21.9351 19.4796 22.5585 19.4796 23.1429C19.4796 23.2598 19.4796 23.2987 19.4796 23.3766ZM19.7133 19.013C19.7133 18.5844 19.7133 18.1559 19.7133 17.7273C19.7133 17.6494 19.7523 17.5325 19.8302 17.4546C19.9861 17.2598 20.2588 17.2987 20.3757 17.5325C20.4146 17.6104 20.4146 17.6494 20.4146 17.7273C20.4146 18.1948 20.4146 18.6624 20.4146 19.0909C20.4146 19.1299 20.4146 19.1299 20.4146 19.2078C20.2198 19.1689 19.9861 19.1689 19.7913 19.1299C19.7133 19.0909 19.7133 19.013 19.7133 19.013ZM21.1939 23.5715C20.9211 23.5325 20.6484 23.4935 20.4146 23.4546C20.3757 23.4546 20.3757 23.3766 20.3757 23.3377C20.3757 22.8702 20.3757 22.3637 20.3757 21.8961C20.3757 21.8182 20.3757 21.7013 20.3757 21.6234C20.4146 21.5065 20.4536 21.3896 20.5315 21.2728C20.7263 21.039 21.077 21.1169 21.1939 21.3896C21.2328 21.4676 21.2328 21.5844 21.2328 21.7013C21.2328 22.2857 21.2328 22.8312 21.2328 23.4156C21.2328 23.4935 21.1939 23.5325 21.1939 23.5715ZM21.7003 19.4416C21.5055 19.4026 21.3107 19.3637 21.1159 19.3247C21.077 19.3247 21.038 19.2468 21.038 19.2468C21.038 18.8572 21.038 18.4676 21.038 18.1169C21.038 18.039 21.077 17.9221 21.1549 17.8442C21.3107 17.6883 21.5835 17.7273 21.6614 17.9611C21.7003 18.039 21.7003 18.1169 21.7003 18.1559C21.7003 18.5844 21.7003 18.9741 21.7003 19.4026C21.7003 19.4026 21.7003 19.4026 21.7003 19.4416ZM22.9081 23.8052C22.9081 23.8442 22.9081 23.8442 22.9081 23.8831C22.6354 23.8442 22.4017 23.7663 22.1289 23.7273C22.09 23.7273 22.09 23.6883 22.09 23.6494C22.09 23.2208 22.051 22.8312 22.09 22.4026C22.09 22.1689 22.1679 21.9741 22.2068 21.7403C22.3237 21.7013 22.4406 21.7013 22.5185 21.6624C22.6744 21.6234 22.8302 21.7013 22.8692 21.8572C22.9861 22.052 22.9471 22.2857 22.9471 22.5195C22.9081 22.9481 22.9081 23.3766 22.9081 23.8052ZM22.9081 19.8312C22.7133 19.7533 22.5575 19.7143 22.4016 19.6364C22.3627 19.6364 22.3237 19.5585 22.3237 19.5585C22.3237 19.2468 22.3237 18.9351 22.3237 18.6234C22.3237 18.5455 22.3627 18.4286 22.4016 18.3896C22.5185 18.2338 22.7913 18.2338 22.8692 18.4676C22.9081 18.5455 22.9081 18.5844 22.9081 18.6624C22.9081 19.013 22.9081 19.4026 22.9081 19.7533C22.9471 19.7533 22.9081 19.7922 22.9081 19.8312ZM24.4666 23.1429C24.4666 23.4935 24.4666 23.8052 24.4666 24.1559C24.4666 24.1948 24.4666 24.2338 24.4666 24.3117C24.1939 24.2338 23.9601 24.1948 23.7263 24.1169C23.6874 24.1169 23.6874 24.039 23.6874 24C23.6874 23.7273 23.6874 23.4546 23.6874 23.1818C23.6874 23.065 23.6874 22.9481 23.6874 22.8312C23.6874 22.6754 23.7653 22.5585 23.8822 22.4416C23.9991 22.3247 24.3107 22.4416 24.3887 22.5974C24.4666 22.7533 24.4666 22.9481 24.4666 23.1429Z" fill="#29ABE2"/>
<path d="M22.2068 15.8962C22.1679 15.7013 22.1679 15.5065 22.1289 15.3117C21.9731 14.3767 21.6614 13.5195 21.1549 12.7013C20.8822 12.2728 20.5315 11.8832 20.1029 11.5715C19.8692 11.3767 19.2458 11.026 18.077 10.5585C17.9601 10.4806 17.9601 10.3637 17.9601 10.2468C17.9601 9.97408 17.9601 9.70135 17.999 9.42862C17.999 9.3507 18.038 9.27278 18.077 9.23382C18.5445 9.00005 18.5835 8.4546 18.2328 8.22083C18.1549 8.14291 18.038 8.10395 17.9211 8.06498C17.8822 8.06498 17.8042 8.02602 17.7653 7.98706C17.5315 7.59745 17.4925 6.74031 17.4925 6.27278C17.6094 6.15589 17.6874 6.00005 17.6874 5.80524C17.6874 5.57148 17.5705 5.37667 17.4146 5.29875C17.4536 5.22083 17.4925 5.14291 17.4925 5.06498C17.4925 4.87018 17.3757 4.7533 17.2588 4.7533C17.1419 4.7533 17.025 4.90914 17.025 5.06498C17.025 5.14291 17.064 5.25979 17.1029 5.29875C16.9471 5.37667 16.8302 5.57148 16.8302 5.80524C16.8302 6.00005 16.9081 6.15589 17.025 6.27278C17.025 7.20784 16.9081 7.71434 16.8302 7.9481C16.6744 8.10395 16.5575 8.14291 16.4796 8.14291C16.3627 8.18187 16.2848 8.22083 16.1679 8.29875C15.8172 8.53252 15.8562 9.07797 16.3237 9.31174C16.4016 9.3507 16.4016 9.42862 16.4016 9.50654C16.4016 9.77927 16.4016 10.052 16.4406 10.3247C16.4406 10.4416 16.4016 10.5585 16.3237 10.6364C15.1549 11.1039 14.5315 11.4546 14.2977 11.6494C13.8692 11.9611 13.5575 12.3507 13.2458 12.7793C12.7003 13.5585 12.4276 14.4546 12.2718 15.3897C12.2328 15.5845 12.2328 15.7793 12.1938 15.9741C13.8302 15.3117 15.5055 15.078 17.2198 15.078C18.8951 15.0001 20.5705 15.2338 22.2068 15.8962Z" fill="#29ABE2"/>
<path d="M31.4796 18.5844H31.2069V16.3247C31.2069 8.68834 25.0121 2.49353 17.3757 2.49353H16.9471C9.31075 2.49353 3.11595 8.68834 3.11595 16.3247V18.5844H2.92114V16.3247C2.92114 8.57145 9.23283 2.25977 16.9861 2.25977H17.4146C25.1679 2.25977 31.4796 8.57145 31.4796 16.3247V18.5844Z" fill="white"/>
<path d="M17.4146 39.7402H16.9861C9.23283 39.7402 2.92114 33.4286 2.92114 25.6753V23.5714H3.19387V25.6753C3.19387 33.3117 9.38867 39.5065 17.025 39.5065H17.4536C25.09 39.5065 31.2848 33.3117 31.2848 25.6753V23.5714H31.5575V25.6753C31.4796 33.4286 25.1679 39.7402 17.4146 39.7402Z" fill="white"/>
</g>
<defs>
<clipPath id="clip0_1165_27607">
<rect width="32.8054" height="42" fill="white" transform="translate(0.77832)"/>
</clipPath>
</defs>
</svg>
