<svg width="44" height="42" viewBox="0 0 44 42" fill="none" xmlns="http://www.w3.org/2000/svg">
<path d="M34.1921 24.3816C34.1921 24.2866 34.1446 24.1441 34.1446 24.0017V18.5404C34.1446 17.9706 34.5246 17.4957 35.0469 17.3532C35.0469 17.2107 35.0469 17.1158 35.0469 16.9733C35.1894 15.3112 36.4241 13.8865 38.0387 13.4591C38.3712 13.3641 38.7036 13.3166 39.0835 13.3166C35.9017 6.14578 28.7309 1.15942 20.4203 1.15942C9.1179 1.15942 0 10.3248 0 21.5797C0 32.8821 9.16539 42 20.4203 42C30.2505 42 38.4187 35.0666 40.4132 25.8537H36.0917C35.1419 25.9012 34.3821 25.2839 34.1921 24.3816Z" fill="#1D6799"/>
<path d="M35.9967 18.2555C35.9967 18.1605 35.9967 18.113 35.9967 18.018C35.9967 17.6856 35.9967 17.3532 35.9967 17.0208C36.1392 15.7386 37.0415 14.6938 38.2762 14.3614C40.0808 13.8865 41.8854 15.0737 42.1703 16.8783C42.2178 17.1157 42.2178 17.3532 42.2178 17.5431C42.2178 17.7806 42.2178 17.9706 42.2178 18.208C42.2653 18.208 42.2653 18.208 42.3128 18.208C42.4552 18.208 42.6452 18.208 42.7876 18.208C43.0251 18.208 43.0726 18.303 43.0726 18.5404C43.0726 19.1103 43.0726 19.6802 43.0726 20.25C43.0726 21.4847 43.0726 22.7195 43.0726 23.9542C43.0726 24.1916 42.9776 24.4291 42.8351 24.619C42.6452 24.809 42.4077 24.904 42.1703 24.904C41.1255 24.904 40.0808 24.904 39.036 24.904C38.0387 24.904 37.0415 24.904 36.0442 24.904C35.5693 24.904 35.2369 24.619 35.1419 24.1441C35.1419 24.0966 35.1419 24.0017 35.1419 23.9542C35.1419 22.1496 35.1419 20.2975 35.1419 18.4929C35.1419 18.303 35.2369 18.208 35.4268 18.208C35.5693 18.2555 35.8068 18.2555 35.9967 18.2555ZM40.8406 18.2555C40.8406 18.208 40.8406 18.113 40.8406 18.0655C40.8406 17.7806 40.8406 17.4482 40.8406 17.1632C40.7456 16.3559 40.0808 15.7386 39.2735 15.6436C38.2287 15.5486 37.3739 16.3559 37.3739 17.4007C37.3739 17.6381 37.3739 17.9231 37.3739 18.1605C37.3739 18.208 37.3739 18.208 37.3739 18.2555C38.5136 18.2555 39.7009 18.2555 40.8406 18.2555ZM39.131 23.1469C39.2735 23.1469 39.4159 23.1469 39.5584 23.1469C39.7009 23.1469 39.7958 23.0519 39.7483 22.9094C39.7009 22.5295 39.6534 22.1496 39.6059 21.7697C39.6059 21.7222 39.6059 21.6747 39.6534 21.6272C40.0333 21.2948 40.0333 20.7249 39.7009 20.3925C39.3684 20.0126 38.7986 20.0126 38.4661 20.3925C38.1337 20.7724 38.1812 21.3423 38.5136 21.6272C38.5611 21.6747 38.5611 21.6747 38.5611 21.7222C38.5136 22.1021 38.4661 22.482 38.4186 22.9094C38.4186 23.0519 38.4661 23.1469 38.6561 23.1469C38.8461 23.1469 38.9885 23.1469 39.131 23.1469Z" fill="#F7BC37"/>
<path d="M16.5737 0.0196704C17.2386 0.0196704 17.7609 0.58954 17.7134 1.25439C17.666 2.29915 17.7609 8.66268 17.666 12.0344C17.666 12.3668 17.8559 12.5093 18.0459 12.6993C21.5126 16.2134 30.8679 26.3286 34.4296 29.5104C34.8095 29.8428 34.9995 30.3652 35.2369 30.8401C35.4744 31.2675 35.6643 31.7424 35.9493 32.0748C36.4241 32.5497 36.4716 33.262 36.0917 33.7369V33.7844C36.0442 33.8794 35.9492 33.9744 35.9967 34.0693C36.0917 34.8766 36.1867 35.684 36.2817 36.4913L35.3319 36.8237C35.1419 37.3936 35.4269 37.821 35.7593 38.2484C35.9967 38.4858 36.0442 38.7707 35.9967 39.1032V39.1507C35.9018 39.5306 35.4744 39.768 35.0944 39.5306C34.952 39.4356 34.8095 39.3881 34.667 39.3881C32.815 39.4831 30.9629 39.6255 29.0633 39.7205C28.541 39.768 28.0186 39.768 27.4487 39.768C27.3537 39.768 27.1638 39.7205 27.1163 39.6255C26.5464 38.8182 25.9291 38.0109 25.6916 37.0137C25.6441 36.8237 25.5017 36.6812 25.3592 36.5388C25.1692 36.3488 24.9793 36.2063 24.7893 36.0164C24.3619 35.5415 23.887 35.3041 23.2222 35.399C23.0322 35.4465 22.9372 35.3515 22.8898 35.1141C22.8423 34.8292 22.6998 34.5442 22.6523 34.2593C22.6048 33.9744 22.4624 33.9269 22.2249 33.9269C21.7025 33.9269 21.1802 33.9269 20.6578 33.8794C20.5153 33.8794 20.3728 33.7369 20.2779 33.6419C19.8505 33.167 19.4705 32.6447 19.0431 32.1698C18.9957 32.0748 18.8057 32.0748 18.7107 32.0748C18.6157 32.0748 18.5208 32.1223 18.4258 32.1698C17.9034 32.4547 17.3335 32.6447 16.7637 32.3122C16.6687 32.2647 16.5262 32.2647 16.3838 32.2647C15.8614 32.3122 15.5764 32.0273 15.529 31.5049C15.529 31.0775 15.529 30.6976 15.4815 30.3177C15.339 29.4154 14.8166 28.6556 14.1993 28.0382C13.7244 27.5158 13.3919 26.9935 13.3445 26.3286C13.3445 26.1387 13.202 25.9487 13.0595 25.8062C12.7746 25.5213 12.5371 25.2364 12.2522 24.9514C11.7298 24.4291 11.7298 23.5742 12.2522 23.0519C12.2522 23.0519 12.2522 23.0519 12.2522 23.0044C12.2522 23.0044 9.78277 19.2053 9.6878 18.6829C9.64031 18.1605 9.35537 17.923 8.7855 17.6856C7.97819 17.3532 8.21564 16.5934 8.26313 16.166C8.26313 16.0235 8.21564 15.8335 8.12066 15.786C7.5033 15.2162 6.83845 14.6938 6.26858 14.0764C5.98365 13.744 5.84118 13.2691 5.69871 12.7942C5.65123 12.6518 5.84118 12.3668 5.98365 12.2244C6.26858 11.8919 6.22109 11.5595 6.03114 11.1321C5.60374 9.75493 5.17633 9.04259 4.8914 8.47272C4.55898 7.85537 4.41651 7.14303 4.55898 6.43069C4.79642 5.05351 5.22383 3.10646 5.03387 2.63157C4.8914 2.25166 4.93889 2.0617 5.08136 1.34936C5.22382 0.447072 5.3188 0.0196704 6.31607 0.0196704C7.31334 0.0196704 8.92797 0.0196715 11.16 0.0671605C13.297 0.0196715 15.9564 -0.0278187 16.5737 0.0196704Z" fill="#29ABE2"/>
<path d="M7.74071 22.767L9.78274 23.3843C9.64027 23.9542 9.45031 24.4291 9.11789 24.809C8.78547 25.1889 8.45304 25.4738 8.02564 25.6638C7.59824 25.8537 7.02837 25.9487 6.36353 25.9487C5.55621 25.9487 4.89136 25.8537 4.36898 25.6163C3.8466 25.3789 3.4192 24.9515 3.03929 24.3816C2.65938 23.7642 2.46942 23.0044 2.46942 22.1021C2.46942 20.8674 2.80184 19.9176 3.46669 19.2528C4.13154 18.5879 5.08132 18.2555 6.26855 18.2555C7.21833 18.2555 7.97815 18.4455 8.50053 18.8254C9.02291 19.2053 9.45031 19.7751 9.68776 20.5825L7.64573 21.0573C7.55075 20.8199 7.50326 20.6774 7.40829 20.535C7.26582 20.345 7.12335 20.2025 6.93339 20.1076C6.74344 20.0126 6.55348 19.9651 6.31604 19.9651C5.79366 19.9651 5.36625 20.1551 5.12881 20.5825C4.93885 20.9149 4.79639 21.3898 4.79639 22.0546C4.79639 22.9094 4.93885 23.4793 5.1763 23.7642C5.41374 24.0492 5.79366 24.2391 6.22106 24.2391C6.64846 24.2391 6.98088 24.0967 7.21833 23.8592C7.50326 23.5743 7.64573 23.2418 7.74071 22.767Z" fill="white"/>
<path d="M15.6714 22.767L17.7134 23.3843C17.5709 23.9542 17.381 24.4291 17.0486 24.809C16.7161 25.1889 16.3837 25.4738 15.9563 25.6638C15.5289 25.8537 14.959 25.9487 14.2942 25.9487C13.4869 25.9487 12.822 25.8537 12.2996 25.6163C11.7773 25.3789 11.3499 24.9515 10.97 24.3816C10.59 23.7642 10.4001 23.0044 10.4001 22.1021C10.4001 20.8674 10.7325 19.9176 11.3974 19.2528C12.0622 18.5879 13.012 18.2555 14.1992 18.2555C15.149 18.2555 15.9088 18.4455 16.4312 18.8254C16.9536 19.2053 17.381 19.7751 17.6184 20.5825L15.5764 21.0573C15.4814 20.8199 15.4339 20.6774 15.3389 20.535C15.1965 20.345 15.054 20.2025 14.8641 20.1076C14.6741 20.0126 14.4841 19.9651 14.2467 19.9651C13.7243 19.9651 13.2969 20.1551 13.0595 20.5825C12.8695 20.9149 12.7271 21.3898 12.7271 22.0546C12.7271 22.9094 12.8695 23.4793 13.107 23.7642C13.3444 24.0492 13.7243 24.2391 14.1517 24.2391C14.5791 24.2391 14.9115 24.0967 15.149 23.8592C15.4339 23.5743 15.5764 23.2418 15.6714 22.767Z" fill="white"/>
<path d="M18.6157 18.303H22.4623C23.3171 18.303 23.9345 18.4929 24.3619 18.9203C24.7893 19.3002 24.9793 19.8701 24.9793 20.6299C24.9793 21.3898 24.7418 21.9596 24.3144 22.387C23.8395 22.8144 23.1747 23.0044 22.2249 23.0044H20.9427V25.8062H18.6157V18.303ZM20.9427 21.5322H21.5126C21.94 21.5322 22.2724 21.4373 22.4623 21.2948C22.6523 21.1523 22.7473 20.9624 22.7473 20.6774C22.7473 20.44 22.6523 20.25 22.5098 20.0601C22.3674 19.9176 22.0349 19.8226 21.6075 19.8226H20.9427V21.5322Z" fill="white"/>
<path d="M29.7281 24.5715H27.1162L26.7363 25.8062H24.3619L27.1637 18.303H29.6807L32.4825 25.8062H30.0606L29.7281 24.5715ZM29.2533 22.9569L28.4459 20.25L27.6386 22.9569H29.2533Z" fill="white"/>
</svg>
