<svg width="289" height="54" viewBox="0 0 289 54" fill="none" xmlns="http://www.w3.org/2000/svg">
<g clip-path="url(#clip0_1165_27478)">
<path d="M289 36.3592H284.781V35.3675C284.781 32.3657 284.785 29.3658 284.781 26.3641C284.775 22.9432 283.319 20.9199 279.932 20.4326C277.201 20.0401 274.395 20.1766 271.621 20.0894C270.874 20.0666 270.125 20.0856 269.277 20.0856V36.3345H265.206V15.984C265.56 15.965 265.868 15.9328 266.175 15.9328C269.838 15.929 273.508 15.8437 277.167 15.9669C279.073 16.0314 281.024 16.259 282.85 16.7823C286.267 17.7589 288.16 20.2392 288.805 23.7017C288.85 23.9426 288.935 24.1777 289.002 24.4147V36.3611L289 36.3592Z" fill="white"/>
<path d="M88.1113 20.1084C87.6316 20.1084 87.2903 20.1084 86.947 20.1084C83.4712 20.1084 79.9935 20.0629 76.5196 20.1311C75.141 20.1577 73.7435 20.3246 72.3971 20.6242C70.0628 21.1437 68.5534 23.0722 68.4681 25.4672C68.4397 26.2522 68.4226 27.0638 68.5876 27.8242C69.1337 30.3424 70.9332 31.6205 73.313 31.9713C75.1429 32.2406 77.0278 32.1742 78.888 32.2121C80.5207 32.2463 82.1552 32.2197 83.8979 32.2197V24.2062H88.0298V36.418C87.7055 36.418 87.4002 36.418 87.0968 36.418C83.3688 36.418 79.6389 36.418 75.9109 36.418C73.7454 36.418 71.6348 36.1336 69.6172 35.2879C66.8715 34.1387 65.2293 32.1097 64.6016 29.2085C64.0935 26.8723 64.1029 24.5399 64.8026 22.272C65.9404 18.5914 68.7317 16.8051 72.3573 16.278C74.3465 15.9878 76.3849 15.9784 78.4025 15.9423C81.3398 15.8911 84.2809 15.9499 87.2182 15.9139C87.9274 15.9044 88.1644 16.113 88.1246 16.826C88.0677 17.8613 88.1094 18.9005 88.1094 20.1065L88.1113 20.1084Z" fill="white"/>
<path d="M154.474 15.9082C157.654 16.0087 160.349 16.223 162.776 17.6869C164.352 18.6369 165.507 19.951 166.121 21.6652C167.181 24.6234 167.196 27.6346 166.134 30.5871C165.205 33.1698 163.265 34.7835 160.683 35.5799C156.837 36.765 152.955 36.7897 149.119 35.5552C146.023 34.5578 144.075 32.4359 143.37 29.218C142.829 26.7529 142.877 24.2991 143.711 21.925C144.906 18.525 147.604 16.9265 150.961 16.2875C152.258 16.0409 153.594 15.9992 154.471 15.9082H154.474ZM154.973 32.3108C156.124 32.1477 157.334 32.0832 158.483 31.7874C160.389 31.2963 161.913 30.204 162.365 28.1883C162.613 27.0771 162.626 25.8635 162.492 24.7277C162.232 22.5109 160.804 21.2158 158.728 20.5938C156.725 19.9927 154.679 19.9491 152.633 20.2563C149.282 20.7588 147.667 22.2891 147.25 25.27C146.785 28.5979 148.384 31.0422 151.647 31.8481C152.709 32.1098 153.822 32.1591 154.973 32.3127V32.3108Z" fill="white"/>
<path d="M251.477 15.7982C252.962 16.0921 255.019 16.3064 256.946 16.9246C259.898 17.8708 261.715 20.0382 262.388 23.0722C262.887 25.3193 262.883 27.5948 262.232 29.8172C261.47 32.4226 259.849 34.3189 257.276 35.2803C253.102 36.839 248.877 36.8636 244.671 35.4434C241.516 34.3777 239.724 32.0756 239.113 28.8463C238.698 26.6467 238.717 24.4394 239.405 22.2929C240.566 18.6691 243.31 16.9265 246.865 16.278C248.195 16.0352 249.56 15.9916 251.477 15.8001V15.7982ZM250.762 32.3809C252.148 32.1249 253.586 32.0206 254.909 31.5788C257.477 30.7217 258.656 28.6036 258.486 25.5904C258.336 22.9641 256.874 21.1912 254.308 20.5294C251.904 19.9093 249.505 19.9377 247.1 20.5597C244.941 21.1172 243.416 22.7366 243.118 24.8642C242.707 27.8015 243.608 30.0068 245.69 31.1711C247.26 32.051 248.976 32.2159 250.762 32.3809Z" fill="white"/>
<path d="M140.442 36.3573H136.377C136.377 35.9914 136.377 35.6538 136.377 35.3182C136.377 32.4112 136.377 29.5062 136.377 26.5992C136.377 22.7612 134.998 20.8195 131.251 20.3644C127.891 19.9567 124.466 20.0932 120.958 19.9851V36.3289H116.87V15.9878C117.149 15.9689 117.448 15.9328 117.748 15.9328C121.476 15.929 125.204 15.8892 128.93 15.9518C130.405 15.9765 131.909 16.0959 133.346 16.4183C137.306 17.3057 140.042 19.6912 140.372 23.8212C140.702 27.9551 140.444 32.1363 140.444 36.3573H140.442Z" fill="white"/>
<path d="M209.729 36.3365H185.436C186.134 34.9484 186.777 33.6609 187.429 32.3752C189.782 27.737 192.134 23.095 194.504 18.4643C194.775 17.9353 195.098 17.41 195.494 16.9739C196.755 15.582 198.866 15.656 199.916 17.2071C200.743 18.4283 201.42 19.7576 202.089 21.0755C204.545 25.9109 206.97 30.7615 209.405 35.6083C209.515 35.8264 209.604 36.0521 209.729 36.3365ZM197.618 20.6943C195.604 24.6575 193.729 28.3495 191.8 32.142H203.398C201.479 28.34 199.613 24.6461 197.618 20.6943Z" fill="white"/>
<path d="M215.843 20.0914H205.995V16.0562H229.772C229.772 17.2698 229.801 18.489 229.736 19.7007C229.729 19.8487 229.234 20.0857 228.963 20.0895C226.34 20.1198 223.718 20.1065 221.095 20.1065C220.754 20.1065 220.414 20.1065 219.969 20.1065V36.329H215.843V20.0914Z" fill="white"/>
<path d="M166.315 15.9822C167.72 15.9822 169.003 15.9519 170.283 16.0106C170.501 16.0201 170.771 16.3785 170.9 16.6326C173.141 21.0452 175.362 25.4691 177.593 29.8874C177.861 30.4165 178.166 30.9246 178.543 31.6054C180.036 28.6302 181.445 25.8143 182.859 23.004C183.936 20.8632 185.013 18.7204 186.121 16.5966C186.255 16.3368 186.578 16.0163 186.828 16.0031C188.047 15.9424 189.272 15.9746 190.668 15.9746C189.758 17.7912 188.925 19.4694 188.082 21.1419C185.863 25.5317 183.69 29.9462 181.401 34.2981C179.918 37.1197 177.163 37.1349 175.638 34.3113C173.647 30.6231 171.812 26.8496 169.914 23.1102C168.732 20.7835 167.562 18.453 166.313 15.9803L166.315 15.9822Z" fill="white"/>
<path d="M90.5541 28.177V24.193H114.314V28.177H90.5541Z" fill="white"/>
<path d="M90.2546 28.2528V24.2688H114.015V28.2528H90.2546Z" fill="white"/>
<path d="M90.2546 36.2426V32.2585H114.015V36.2426H90.2546Z" fill="white"/>
<path d="M114.357 16.0391C114.357 17.2527 114.338 18.3866 114.365 19.5187C114.38 20.171 113.959 20.1103 113.542 20.1084C111.238 20.1084 108.934 20.1084 106.63 20.1084C101.675 20.1084 96.7203 20.1084 91.7654 20.1084H90.5726V16.0391H114.355H114.357Z" fill="white"/>
<path d="M232.249 16.02H236.261V36.3288H232.249V16.02Z" fill="white"/>
</g>
<g clip-path="url(#clip1_1165_27478)">
<path d="M0 25.7189C0.432345 23.5268 0.707301 21.2873 1.32927 19.1503C2.93539 13.6379 6.13247 9.18928 10.7745 5.79499C15.2155 2.55051 20.1761 0.834404 25.6866 0.754762C26.155 0.747177 26.6252 0.800272 27.1372 0.828715C27.1372 1.06764 27.1562 1.24968 27.1334 1.42603C26.9495 2.96768 26.9457 2.93166 25.4306 2.99802C18.0144 3.31849 11.9312 6.38852 7.44088 12.2593C2.08587 19.2659 0.976568 27.0861 3.97454 35.3537C5.99784 40.9306 9.76189 45.1365 15.0221 47.9524C15.2439 48.0719 15.4658 48.1932 15.6877 48.3146C16.5751 48.7943 16.8084 49.8221 16.12 50.5332C15.9645 50.6925 15.4468 50.6868 15.2117 50.5541C13.5203 49.587 11.7359 48.7223 10.2094 47.5314C6.46052 44.5998 3.56874 40.9287 1.94366 36.4289C1.13585 34.1932 0.752811 31.8039 0.183936 29.4829C0.109982 29.1776 0.06068 28.8686 0 28.5633C0 27.6151 0 26.667 0 25.7189Z" fill="white"/>
<path d="M50.2791 26.8225C49.8335 17.455 45.6921 10.4104 37.5363 5.78738C37.3713 5.69446 37.2026 5.60723 37.0376 5.51432C36.2525 5.07818 36.0629 3.89113 36.7475 3.29191C36.9162 3.14401 37.4282 3.19141 37.6558 3.34122C39.8099 4.75961 42.1745 5.96942 44.0309 7.71397C51.578 14.8059 53.9787 23.6311 51.5173 33.5504C49.1793 42.9671 42.878 48.9858 33.7495 51.9648C31.5688 52.6778 29.1568 52.7025 26.8452 52.9831C26.4375 53.0324 25.7284 53.2486 25.7056 52.4104C25.6753 51.3372 25.99 50.9655 26.8661 50.8309C28.9501 50.5085 31.1156 50.4213 33.0972 49.7747C42.3509 46.7539 48.0358 40.466 49.8448 30.8273C50.0933 29.5 50.1445 28.1328 50.2829 26.8225H50.2791Z" fill="white"/>
<path d="M35.6589 32.3368C34.9896 32.3008 34.2804 31.9614 33.9125 31.1839C33.6584 30.6473 33.336 30.4538 32.7539 30.4557C28.11 30.4652 23.4661 30.4576 18.8222 30.433C18.2229 30.4292 17.8551 30.6112 17.5175 31.1365C16.888 32.115 15.5227 32.2648 14.7016 31.5347C13.8995 30.8217 13.8331 29.5664 14.5594 28.825C15.4108 27.9565 16.7173 27.9868 17.4455 28.9956C17.8608 29.5683 18.295 29.8432 18.9966 29.8413C23.6083 29.83 28.2219 29.8603 32.8335 29.8129C33.1787 29.8091 33.592 29.3787 33.8461 29.0487C34.3941 28.33 35.0104 27.7782 35.968 27.8579C36.8953 27.9337 37.559 28.4362 37.925 29.2933C38.5356 30.7212 37.43 32.3254 35.6608 32.3387L35.6589 32.3368Z" fill="white"/>
<path d="M14.7548 23.5249C14.7567 22.4876 15.3445 21.7007 16.3305 21.4163C17.2351 21.1546 18.3709 21.4978 18.8089 22.3359C19.2147 23.1172 19.7931 23.2632 20.5762 23.2613C25.0267 23.2442 29.4772 23.248 33.9277 23.2632C34.5061 23.2651 34.9119 23.1494 35.2475 22.5957C35.75 21.769 36.7038 21.4978 37.5628 21.8164C38.365 22.1141 38.7594 22.7417 38.7726 23.5685C38.7878 24.4692 38.2417 25.0324 37.4529 25.3491C36.6583 25.6676 35.7766 25.3813 35.257 24.5166C34.9005 23.9231 34.4701 23.8302 33.8614 23.8321C29.4431 23.8491 25.0229 23.8586 20.6047 23.8264C19.8045 23.8207 19.2754 23.98 18.8488 24.7366C18.2799 25.7435 17.3166 26.045 16.34 25.7359C15.3161 25.4116 14.7548 24.6285 14.7586 23.5268L14.7548 23.5249Z" fill="white"/>
<path d="M26.4375 13.1638C24.6626 13.1751 23.1873 11.715 23.1551 9.91548C23.1228 8.16904 24.6246 6.63497 26.3844 6.6217C28.1403 6.60653 29.6649 8.11025 29.6725 9.86428C29.6819 11.6297 28.1858 13.1543 26.4375 13.1638Z" fill="white"/>
<path d="M29.6535 43.9854C29.6516 45.7716 28.1782 47.2185 26.3787 47.2052C24.619 47.1919 23.1835 45.764 23.1683 44.01C23.1532 42.2541 24.6607 40.7068 26.3976 40.6954C28.1081 40.684 29.6554 42.2465 29.6535 43.9835V43.9854Z" fill="white"/>
<path d="M21.1034 14.5216C22.3265 14.3945 22.9864 15.1682 23.4642 16.0916C23.76 16.6624 24.1146 16.8198 24.7252 16.8084C26.7447 16.7705 28.768 16.8217 30.7875 16.7705C31.1952 16.761 31.6636 16.5354 31.9841 16.2661C32.6497 15.7067 33.3096 15.591 33.8443 16.0803C34.3297 16.524 34.3658 17.3508 33.9201 17.8855C33.4442 18.4582 32.8526 18.4221 32.0808 17.9272C31.6617 17.6579 31.1289 17.4437 30.6396 17.4285C28.8098 17.3716 26.9761 17.4475 25.1462 17.3868C24.2455 17.3583 23.669 17.5593 23.176 18.4146C22.3796 19.795 20.7052 19.9638 19.4006 18.955C18.369 18.1567 18.2021 16.2851 19.192 15.318C19.6698 14.8515 20.3866 14.6277 20.9953 14.2959C21.0313 14.3699 21.0674 14.4457 21.1034 14.5197V14.5216Z" fill="white"/>
<path d="M34.2595 36.6185C34.2709 37.7525 33.611 38.6779 32.5187 39.0628C31.5308 39.4117 30.3153 39.1349 29.7938 38.1336C29.2022 37.0016 28.3527 36.8309 27.2547 36.8613C25.8686 36.8992 24.4786 36.8461 23.0906 36.8556C22.1918 36.8613 21.3252 36.8063 20.5894 37.6065C20.1078 38.1317 19.317 38.0407 18.8316 37.4358C18.3557 36.8423 18.4353 36.1634 18.9928 35.6477C19.5787 35.1072 20.1438 35.2267 20.7449 35.7576C21.0768 36.0516 21.5907 36.2772 22.0287 36.2886C23.9837 36.3455 25.9425 36.2734 27.8976 36.3322C28.6845 36.355 29.1491 36.1483 29.5416 35.4258C30.1769 34.2558 31.2938 33.8311 32.4125 34.1572C33.5389 34.4872 34.2519 35.4334 34.2633 36.6166L34.2595 36.6185Z" fill="white"/>
<path d="M34.2728 2.60931C34.2633 3.9822 33.1806 5.08392 31.8399 5.08771C30.4215 5.0915 29.3691 3.99358 29.3975 2.54105C29.4241 1.24781 30.6453 -0.011301 31.8627 7.65274e-05C33.0402 0.011454 34.2823 1.35589 34.2728 2.60931Z" fill="white"/>
<path d="M20.9706 53.7131C19.6053 53.7036 18.5605 52.6038 18.5889 51.2025C18.6174 49.8069 19.6015 48.8151 20.9687 48.8075C22.3682 48.8 23.4244 49.8505 23.4187 51.2461C23.413 52.6152 22.3132 53.7207 20.9706 53.7131Z" fill="white"/>
</g>
<defs>
<clipPath id="clip0_1165_27478">
<rect width="224.755" height="20.6805" fill="white" transform="translate(64.2451 15.7982)"/>
</clipPath>
<clipPath id="clip1_1165_27478">
<rect width="52.4465" height="53.7132" fill="white"/>
</clipPath>
</defs>
</svg>
