<svg width="70" height="42" viewBox="0 0 70 42" fill="none" xmlns="http://www.w3.org/2000/svg">
<g clip-path="url(#clip0_1165_27552)">
<path d="M45.7997 1.43994C53.1655 1.43994 59.5345 5.5936 62.7467 11.6303H64.3528C61.0298 4.76287 53.9409 0 45.7997 0C41.0368 0 36.6616 1.60608 33.1172 4.37519C33.6156 4.59672 34.1695 4.81825 34.6679 4.9844C37.8801 2.76911 41.7014 1.43994 45.7997 1.43994Z" fill="#2AA6F8"/>
<path d="M45.8023 39.8195C39.7102 39.8195 34.2828 36.995 30.7937 32.5645H29.0215C32.7875 37.8258 38.8795 41.2595 45.8577 41.2595C52.8358 41.2595 58.9279 37.8258 62.6939 32.5645H60.9216C57.3218 36.9396 51.8943 39.8195 45.8023 39.8195Z" fill="#2AA6F8"/>
<path d="M12.461 6.86611C12.461 6.86611 7.19969 9.19216 3.26755 9.19216C2.43682 9.19216 0.553822 8.97063 0 7.75222C2.15991 7.58607 6.86739 6.64457 9.6365 5.70308C9.80265 6.97687 12.461 6.86611 12.461 6.86611ZM12.9041 6.81072C11.0211 7.86298 6.31357 9.30292 3.65523 9.52445C4.0429 10.0229 5.98128 10.4659 7.80889 10.2998C10.7441 10.0783 13.9009 8.25066 14.6763 7.58607C13.9563 7.47531 13.9563 6.69996 12.9041 6.81072ZM15.0086 7.91836C14.344 8.36142 11.0764 10.2444 8.19657 10.6321C9.24883 11.629 11.4641 11.3521 12.461 11.0198C14.0117 10.5767 16.947 8.7491 16.947 8.7491C16.947 8.7491 15.7839 7.75222 15.0086 7.91836ZM17.1685 8.85986C16.67 9.24754 13.4025 10.9644 12.5164 11.2413C13.0148 11.4074 13.5686 11.4628 14.1778 11.5182C14.4548 10.7429 15.4516 10.1337 16.0608 9.85674C16.8362 9.46907 17.8885 9.13678 19.3284 9.35831C19.4945 9.24754 19.6053 9.13678 19.6053 9.13678C19.6053 9.13678 17.7223 9.02601 17.1685 8.85986ZM19.8268 9.19216C19.7714 9.24754 19.6607 9.30292 19.5499 9.41369C20.1037 9.63522 20.6022 10.1337 20.7129 10.2444C20.9899 9.63522 20.8791 8.97063 20.8791 8.97063C20.8791 8.97063 20.1037 8.97063 19.8268 9.19216ZM20.1591 7.53069C17.2239 7.53069 17.8885 4.7062 17.8885 4.15238C17.8885 3.59855 17.8331 2.38014 16.0055 2.60167C14.1778 2.8232 11.0764 4.76158 10.0242 5.42617C10.0242 5.9246 11.4087 6.69996 13.3471 6.42305C13.5133 6.42305 15.2301 6.09075 15.3409 6.14614C15.4516 6.20152 13.9563 6.64458 14.0117 6.69996C14.5101 6.97687 14.787 7.36454 15.1747 7.47531C15.2855 7.47531 16.7254 7.1984 16.947 7.30916C17.0023 7.36454 15.8947 7.69684 15.9501 7.75222C16.5593 7.97375 17.0023 8.30604 17.2792 8.52757C17.39 8.52757 18.4423 8.41681 18.553 8.41681C18.6638 8.41681 17.8885 8.69372 17.9438 8.69372C18.6084 8.80448 19.1622 8.80448 19.4945 8.80448C19.9376 8.80448 20.5468 8.63834 20.7683 8.80448C20.9345 8.91525 20.3253 7.53069 20.1591 7.53069ZM41.8689 7.75222C39.709 7.58607 35.0015 6.64457 32.2324 5.70308C32.0663 6.97687 29.4079 6.86611 29.4079 6.86611C29.4079 6.86611 34.6693 9.08139 38.6014 9.19216C39.5429 9.24754 40.9828 8.91525 41.8689 7.75222ZM38.2137 9.57983C35.5554 9.3583 30.8479 7.91837 28.9649 6.86611C27.9126 6.69996 27.9126 7.53069 27.1927 7.69684C27.968 8.30604 31.1248 10.1337 34.0601 10.4106C34.6693 10.4106 36.4969 10.4659 38.2137 9.57983ZM24.922 8.7491C24.922 8.7491 27.8572 10.5213 29.4079 11.0198C30.4048 11.2967 32.6201 11.5736 33.6724 10.6321C30.7925 10.2444 27.525 8.36142 26.8604 7.91836C26.085 7.75222 24.922 8.7491 24.922 8.7491ZM22.3744 9.08139C22.3744 9.08139 22.4852 9.19216 22.6513 9.35831C23.5928 9.02601 25.0328 9.41369 25.7527 9.6906C26.3619 9.96751 27.0819 10.4106 27.6911 11.4628C28.2449 11.4074 28.8541 11.3521 29.3526 11.1859C28.4664 10.909 25.1989 9.19216 24.7005 8.80448C24.1466 9.02601 22.3744 9.08139 22.3744 9.08139ZM21.0452 9.02601C21.0452 9.02601 20.8791 9.80136 21.2668 10.4106C21.4883 10.0783 21.8206 9.74598 22.4298 9.46907C22.2636 9.3583 22.1529 9.24754 22.0421 9.19216C21.7652 8.97063 21.0452 9.02601 21.0452 9.02601ZM25.8635 2.65706C24.0359 2.43553 23.9805 3.65394 23.9805 4.20776C23.9805 4.76158 24.6451 7.58607 21.7098 7.58607C21.5437 7.58607 20.9345 8.91525 21.0452 8.91525C21.3221 8.7491 21.876 8.91525 22.319 8.91525C22.7067 8.91525 23.2605 8.91525 23.8697 8.80448C23.9805 8.80448 23.2051 8.52757 23.2605 8.52757C23.3713 8.52757 24.4789 8.63833 24.5343 8.63833C24.7558 8.41681 25.2543 8.02913 25.8635 7.86298C25.9189 7.8076 24.8112 7.47531 24.8666 7.41993C25.0881 7.30916 26.5281 7.58607 26.6388 7.58607C27.0265 7.47531 27.3034 7.08763 27.8019 6.81072C27.8572 6.75534 26.3619 6.31228 26.4727 6.2569C26.5835 6.20152 28.3003 6.58919 28.4665 6.53381C30.4048 6.75534 31.7894 6.03537 31.7894 5.53693C30.7925 4.81696 27.6911 2.87859 25.8635 2.65706ZM22.2083 27.0252C22.6513 27.2468 22.9836 27.579 23.0944 28.0775C23.2051 28.5205 23.0944 28.9082 22.7067 29.2405C22.3744 29.5174 21.9867 29.739 21.5437 29.8497C22.0975 29.9051 22.5406 30.1266 22.9836 30.3482C23.039 30.2928 23.0944 30.2928 23.1498 30.2374C23.759 29.8497 24.3128 29.0744 24.2574 28.1329C24.202 27.3575 23.759 26.5268 23.039 26.0283C22.319 25.5853 21.4883 25.4745 20.7683 25.4745C20.1591 25.4745 19.5499 25.4191 18.9961 25.1976C18.4423 24.9761 18.1654 24.6992 18.1654 24.3115C18.1654 23.8684 18.3315 23.3146 18.6638 22.9823C18.8299 22.8716 18.9961 22.7054 19.2176 22.65C19.1622 22.65 19.0515 22.5946 18.9961 22.5946C18.4977 22.4839 17.9992 22.3177 17.5008 22.0408C17.0023 22.65 16.7254 23.4254 16.7254 24.1454C16.7254 24.5884 16.8916 25.1422 17.1685 25.5299C17.5008 25.9176 17.8885 26.1391 18.2207 26.3053C18.9961 26.6376 19.7714 26.6929 20.4914 26.6929C21.2114 26.8037 21.7652 26.8037 22.2083 27.0252ZM22.0421 34.2803C21.7652 33.948 21.3221 33.7265 20.8791 33.6157C20.4914 33.5049 20.1591 33.3388 19.8268 33.1173C19.273 32.7296 19.2176 31.622 19.8268 31.2897C19.8822 31.2343 19.9376 31.2343 19.993 31.1789C19.6607 31.0681 19.3284 30.9574 18.9961 30.8466C18.7192 31.1789 18.553 31.5666 18.553 31.9542C18.4977 32.5081 18.7192 33.1727 19.1622 33.5049C19.993 34.2803 20.9899 34.1142 21.4329 34.5572C21.9867 34.9449 22.0421 35.5541 21.9313 36.0525C21.7652 37.0494 20.8791 36.994 20.9345 37.0494C20.9345 37.1048 21.0452 37.1602 21.3221 37.1048C21.5991 37.1048 22.0975 36.8279 22.2636 36.2741C22.3744 35.9971 22.4298 35.7202 22.4298 35.3326C22.4852 35.0003 22.3744 34.5572 22.0421 34.2803ZM19.9376 35.9971C19.8822 35.4987 19.9376 34.8895 20.436 34.5018C20.4914 34.4464 20.4914 34.4464 20.5468 34.3911C20.3806 34.2803 20.1591 34.2249 19.993 34.1141C19.9376 34.1695 19.9376 34.1695 19.8822 34.2249C19.6053 34.5572 19.4392 34.9449 19.4392 35.3326C19.4392 35.6648 19.4945 35.9971 19.6053 36.2741C19.8268 36.8279 20.2699 37.0494 20.5468 37.1048C20.8237 37.1048 20.9345 37.0494 20.9345 37.0494C20.9899 36.9386 20.1037 37.0494 19.9376 35.9971ZM23.3159 31.8989C23.3159 31.2897 22.8728 30.6251 22.319 30.3482C21.7652 30.0159 21.0452 30.0159 20.6022 29.9051C20.1037 29.7943 19.6053 29.5728 19.273 29.2959C18.9407 28.9636 18.7746 28.5759 18.8853 28.1329C18.9961 27.7452 19.2176 27.4129 19.5499 27.1914C19.4392 27.1914 19.3838 27.136 19.273 27.136C18.9407 27.0252 18.6084 26.9145 18.2761 26.8037C17.9438 27.2468 17.7777 27.7452 17.7223 28.2436C17.6115 29.1851 18.2207 29.9605 18.8299 30.3482C19.4392 30.7358 20.1037 30.9574 20.7683 31.0127C21.3775 31.0127 21.7652 31.1235 22.0975 31.345C22.7067 31.7327 22.6513 32.785 22.0975 33.1727C21.876 33.3388 21.5991 33.4496 21.3775 33.5603C21.6544 33.6711 21.9313 33.7819 22.2083 33.948C22.3744 33.8372 22.5959 33.7265 22.7621 33.5603C23.1498 33.1173 23.3713 32.4527 23.3159 31.8989ZM24.1466 21.8747C23.4267 21.2655 22.5406 21.044 21.7652 20.9886C20.9345 20.9332 20.3253 20.9886 19.6607 20.8778C18.3869 20.7117 17.1131 19.9917 17.2239 19.3271C17.2239 18.441 17.8884 17.8872 18.8853 17.6103C18.11 17.4995 17.3346 17.3333 16.6147 17.001C16.5593 17.001 16.5593 16.9457 16.5593 16.9457C15.8947 17.5549 15.507 18.6071 15.5624 19.4932C15.5624 20.0471 15.8393 20.6009 16.1716 20.9886C16.5039 21.3762 16.8916 21.6532 17.2792 21.8193C18.0546 22.207 18.8853 22.3731 19.6607 22.4839C20.436 22.5947 21.2668 22.4839 21.8206 22.5393C22.4298 22.5946 22.9836 22.7608 23.3159 23.0931C23.6482 23.37 23.8143 23.9238 23.8143 24.4223C23.8143 24.8099 23.4821 25.0868 22.9836 25.3084C22.8175 25.3638 22.6513 25.4191 22.4298 25.4745C22.9836 25.6961 23.4821 26.0283 24.0359 26.3053C24.3128 26.1391 24.5343 25.973 24.7558 25.6961C25.0881 25.3084 25.2543 24.8099 25.1989 24.3115C25.2543 23.4254 24.922 22.4285 24.1466 21.8747ZM20.9345 10.2998L20.3253 11.6844C20.3253 12.792 20.3253 13.8996 20.3253 15.0627H21.4329C21.4329 13.8996 21.4329 12.7366 21.4883 11.6844L20.9345 10.2998ZM20.9345 8.36142L21.5437 7.25378C21.5437 7.03225 21.5437 6.81072 21.5437 6.58919C21.5437 6.2569 21.2668 6.14614 20.9345 6.14614C20.6022 6.14614 20.3253 6.2569 20.3253 6.58919C20.3253 6.81072 20.3253 7.03225 20.3253 7.25378L20.9345 8.36142ZM20.3807 17.5549C20.3807 18.5517 20.3806 19.604 20.436 20.6009H21.4329C21.4329 19.604 21.4329 18.5517 21.4883 17.5549H20.3807ZM20.436 22.7608C20.436 23.6469 20.436 24.5884 20.4914 25.4191H21.3775C21.3775 24.533 21.4329 23.6469 21.4329 22.7608H20.436ZM21.2668 29.6836C21.2668 28.7975 21.3221 27.9113 21.3221 26.9698H20.4914C20.4914 27.9113 20.5468 28.7975 20.5468 29.6836H21.2668ZM21.2114 33.3388C21.2114 32.6742 21.2668 31.8989 21.2668 31.1235H20.6022C20.6022 31.8989 20.6576 32.6188 20.6576 33.3388H21.2114ZM20.6576 34.5018C20.7129 37.2709 20.8237 39.0432 20.9345 38.9878C20.9899 38.9324 21.1006 37.2156 21.156 34.5018H20.6576ZM20.9345 2.04785C20.1037 2.04785 19.3838 2.71244 19.3838 3.59855C19.3838 4.42929 20.0484 5.14925 20.9345 5.14925C21.7652 5.14925 22.4852 4.48467 22.4852 3.59855C22.4852 2.71244 21.8206 2.04785 20.9345 2.04785ZM20.9345 5.26002C20.436 5.26002 19.993 4.98311 19.8822 5.09387C19.7161 5.20464 20.1037 5.97999 20.9345 5.97999C21.7652 5.97999 22.1529 5.20464 21.9867 5.09387C21.876 4.98311 21.4329 5.26002 20.9345 5.26002ZM26.4173 19.4379C26.4173 19.9917 26.1404 20.5455 25.8081 20.9332C25.4758 21.3209 25.0881 21.5978 24.7005 21.7639C24.1466 21.2655 23.4267 20.9332 22.7067 20.767C23.8143 20.5455 24.8666 19.8809 24.7558 19.2717C24.7558 18.2748 23.8697 17.6656 22.5959 17.3887C20.3806 16.9457 16.7808 17.721 14.6763 14.9519C14.4548 14.6196 14.2886 14.1766 14.2332 13.7335C14.1778 13.2904 14.1778 12.9581 14.2332 12.5705C14.344 11.7951 14.7317 10.9644 15.3409 10.5213C16.5593 9.57983 17.7777 9.52445 18.8299 9.41369C19.3838 9.41369 20.2145 9.96751 20.5468 10.5213C20.5468 10.6321 20.4914 10.6875 20.436 10.7982C20.1591 11.1859 19.3284 11.3521 18.8853 11.3521C18.0546 11.4074 17.5562 10.5213 16.5039 11.6844C16.227 11.9059 16.1716 12.4597 16.1162 12.8474C16.0608 13.2904 16.0608 13.6227 16.2824 13.8996C16.67 14.5642 17.7777 15.0073 18.9407 15.2288C19.5499 15.3396 20.1037 15.3396 20.8237 15.395C21.5437 15.395 22.319 15.5057 23.039 15.6719C23.8143 15.8934 24.5897 16.1703 25.3097 16.7795C26.085 17.4441 26.5281 18.441 26.4173 19.4379ZM18.6638 9.96751C18.6638 10.0783 18.7192 10.1337 18.8299 10.1337C18.9407 10.1337 18.9961 10.0783 18.9961 9.96751C18.9961 9.85674 18.9407 9.80136 18.8299 9.80136C18.7192 9.80136 18.6638 9.85674 18.6638 9.96751ZM27.7465 13.7335C27.6911 14.1766 27.5249 14.6196 27.3034 14.9519C26.805 15.6165 26.1958 16.1149 25.5866 16.3918C25.1989 16.1149 24.7558 15.8934 24.3128 15.7273C23.9251 15.5611 23.5374 15.395 23.1498 15.2842C23.0944 15.2842 23.039 15.2842 22.9836 15.2288H23.039C24.202 15.0627 25.3097 14.5642 25.6973 13.8996C25.9189 13.6227 25.9189 13.2904 25.8635 12.8474C25.8081 12.4597 25.7527 11.9059 25.4758 11.6844C24.3682 10.5213 23.9251 11.4074 23.0944 11.3521C22.5959 11.3521 21.4883 11.0752 21.4883 10.5213C21.8206 9.96751 22.7067 9.3583 23.2051 9.41369C24.202 9.52445 25.4204 9.57983 26.6942 10.5213C27.3034 11.0198 27.7465 11.8505 27.8019 12.5705C27.8019 13.0135 27.8572 13.2904 27.7465 13.7335ZM23.3159 9.96751C23.3159 9.85674 23.2605 9.80136 23.1498 9.80136C23.039 9.80136 22.9836 9.85674 22.9836 9.96751C22.9836 10.0783 23.039 10.1337 23.1498 10.1337C23.2051 10.1337 23.3159 10.0783 23.3159 9.96751Z" fill="#2AA6F8"/>
<path d="M36.9358 26.5294H34.9421V22.4311H31.0653V26.5294H29.127V16.9482H31.1207V20.825H34.9975V16.9482H36.9912V26.5294H36.9358Z" fill="#1D6799"/>
<path d="M41.4215 26.5294H39.4277V16.9482H41.4215V26.5294Z" fill="#1D6799"/>
<path d="M45.9098 23.151V26.5294H43.916V16.9482H47.682C48.402 16.9482 49.0112 17.059 49.565 17.3359C50.1188 17.6128 50.5065 18.0005 50.8388 18.4436C51.1157 18.942 51.2819 19.4958 51.2819 20.105C51.2819 21.0465 50.9496 21.7665 50.3404 22.3203C49.6758 22.8741 48.7897 23.151 47.682 23.151H45.9098ZM45.9098 21.545H47.682C48.1804 21.545 48.6235 21.4342 48.9004 21.1573C49.1773 20.9358 49.2881 20.5481 49.2881 20.105C49.2881 19.662 49.1773 19.2743 48.9004 18.942C48.6235 18.6651 48.2358 18.4989 47.7374 18.4989H45.9098V21.545Z" fill="#1D6799"/>
<path d="M57.5394 24.5356H54.0504L53.3858 26.5294H51.2812L54.8257 16.9482H56.6534L60.2533 26.5294H58.1487L57.5394 24.5356ZM54.6042 22.9295H56.9856L55.7673 19.3297L54.6042 22.9295Z" fill="#1D6799"/>
<path d="M67.2855 24.5356H63.7965L63.1319 26.5294H61.0273L64.5718 16.9482H66.3994L69.9993 26.5294H67.8947L67.2855 24.5356ZM64.3503 22.9295H66.7317L65.5133 19.3297L64.3503 22.9295Z" fill="#1D6799"/>
</g>
<defs>
<clipPath id="clip0_1165_27552">
<rect width="70" height="42" fill="white"/>
</clipPath>
</defs>
</svg>
