<svg width="173" height="33" viewBox="0 0 173 33" fill="none" xmlns="http://www.w3.org/2000/svg">
<g clip-path="url(#clip0_1162_26274)">
<path d="M172.174 22.1612H169.66V21.5703C169.66 19.782 169.662 17.9948 169.66 16.2065C169.657 14.1685 168.789 12.9631 166.772 12.6728C165.145 12.439 163.473 12.5203 161.82 12.4683C161.375 12.4548 160.929 12.4661 160.424 12.4661V22.1465H157.998V10.0225C158.21 10.0112 158.393 9.99201 158.576 9.99201C160.758 9.98975 162.944 9.93892 165.124 10.0123C166.26 10.0508 167.422 10.1863 168.51 10.4981C170.546 11.0799 171.673 12.5576 172.057 14.6204C172.085 14.7639 172.135 14.904 172.175 15.0452V22.1623L172.174 22.1612Z" fill="#2AA6F8"/>
<path d="M52.493 12.4796C52.2072 12.4796 52.0039 12.4796 51.7994 12.4796C49.7286 12.4796 47.6568 12.4524 45.5871 12.4931C44.7658 12.5089 43.9332 12.6083 43.1312 12.7868C41.7405 13.0964 40.8412 14.2453 40.7904 15.6721C40.7735 16.1398 40.7633 16.6233 40.8616 17.0763C41.1869 18.5766 42.259 19.338 43.6768 19.547C44.767 19.7074 45.8899 19.6679 46.9981 19.6905C47.9708 19.7108 48.9446 19.695 49.9828 19.695V14.9208H52.4444V22.1961C52.2513 22.1961 52.0694 22.1961 51.8886 22.1961C49.6676 22.1961 47.4455 22.1961 45.2245 22.1961C43.9344 22.1961 42.677 22.0267 41.475 21.5228C39.8392 20.8382 38.8609 19.6295 38.4869 17.901C38.1842 16.5092 38.1898 15.1197 38.6067 13.7685C39.2845 11.5758 40.9474 10.5116 43.1074 10.1976C44.2925 10.0247 45.5069 10.0191 46.7089 9.9976C48.4588 9.96709 50.211 10.0021 51.9609 9.98065C52.3834 9.975 52.5246 10.0993 52.5009 10.524C52.467 11.1409 52.4919 11.7599 52.4919 12.4784L52.493 12.4796Z" fill="#2AA6F8"/>
<path d="M92.0292 9.97729C93.9237 10.0372 95.529 10.1648 96.9751 11.037C97.9138 11.6029 98.6018 12.3858 98.9679 13.4071C99.5994 15.1694 99.6084 16.9634 98.9758 18.7223C98.4222 20.261 97.2665 21.2224 95.7279 21.6968C93.4368 22.4029 91.1243 22.4176 88.8389 21.6822C86.9941 21.0879 85.8339 19.8238 85.4137 17.9067C85.0917 16.4381 85.12 14.9762 85.617 13.5618C86.3287 11.5363 87.9363 10.5839 89.9359 10.2032C90.7086 10.0564 91.505 10.0315 92.027 9.97729H92.0292ZM92.3263 19.7492C93.0121 19.6521 93.7328 19.6137 94.4174 19.4374C95.5528 19.1448 96.461 18.4941 96.7299 17.2933C96.8779 16.6313 96.8858 15.9082 96.8056 15.2315C96.6508 13.9109 95.8002 13.1393 94.5631 12.7688C93.3702 12.4107 92.1512 12.3847 90.9323 12.5677C88.9361 12.8671 87.9736 13.7787 87.725 15.5546C87.4483 17.5373 88.4006 18.9935 90.3448 19.4736C90.9775 19.6295 91.6406 19.6589 92.3263 19.7504V19.7492Z" fill="#2AA6F8"/>
<path d="M149.819 9.91174C150.704 10.0868 151.93 10.2145 153.077 10.5828C154.836 11.1465 155.919 12.4378 156.32 14.2453C156.617 15.584 156.614 16.9396 156.227 18.2636C155.773 19.8159 154.807 20.9456 153.274 21.5183C150.787 22.4469 148.27 22.4616 145.765 21.6155C143.885 20.9806 142.817 19.6091 142.454 17.6852C142.206 16.3748 142.217 15.0598 142.628 13.781C143.319 11.6221 144.954 10.5839 147.072 10.1976C147.864 10.053 148.677 10.027 149.819 9.91287V9.91174ZM149.393 19.791C150.219 19.6385 151.075 19.5764 151.864 19.3131C153.394 18.8025 154.096 17.5406 153.995 15.7455C153.905 14.1809 153.034 13.1246 151.506 12.7304C150.073 12.3609 148.644 12.3779 147.212 12.7484C145.925 13.0806 145.017 14.0453 144.84 15.3129C144.594 17.0628 145.131 18.3766 146.371 19.0703C147.307 19.5944 148.329 19.6927 149.393 19.791Z" fill="#2AA6F8"/>
<path d="M83.6694 22.16H81.2474C81.2474 21.9419 81.2474 21.7409 81.2474 21.5409C81.2474 19.8091 81.2474 18.0784 81.2474 16.3465C81.2474 14.06 80.4261 12.9032 78.1938 12.6321C76.1919 12.3892 74.1517 12.4705 72.0617 12.4061V22.143H69.6261V10.0247C69.7922 10.0134 69.9707 9.99193 70.1492 9.99193C72.3702 9.98967 74.5911 9.96595 76.811 10.0032C77.6899 10.0179 78.5858 10.0891 79.4421 10.2811C81.8009 10.8098 83.4311 12.231 83.6277 14.6915C83.8242 17.1543 83.6706 19.6453 83.6706 22.16H83.6694Z" fill="#2AA6F8"/>
<path d="M124.948 22.1475H110.475C110.891 21.3206 111.274 20.5535 111.662 19.7876C113.064 17.0243 114.465 14.2588 115.877 11.5001C116.039 11.1849 116.231 10.872 116.467 10.6121C117.218 9.78294 118.476 9.827 119.102 10.7511C119.594 11.4786 119.997 12.2705 120.396 13.0557C121.859 15.9364 123.304 18.8262 124.755 21.7137C124.82 21.8437 124.873 21.9781 124.948 22.1475ZM117.732 12.8286C116.533 15.1897 115.415 17.3892 114.266 19.6486H121.176C120.032 17.3836 118.921 15.1829 117.732 12.8286Z" fill="#2AA6F8"/>
<path d="M128.59 12.4694H122.723V10.0654H136.889C136.889 10.7884 136.906 11.5148 136.867 12.2367C136.863 12.3248 136.568 12.4661 136.406 12.4683C134.844 12.4864 133.281 12.4785 131.719 12.4785C131.516 12.4785 131.314 12.4785 131.048 12.4785V22.1431H128.59V12.4694Z" fill="#2AA6F8"/>
<path d="M99.0832 10.0213C99.9203 10.0213 100.685 10.0033 101.448 10.0383C101.578 10.0439 101.738 10.2574 101.815 10.4088C103.15 13.0376 104.473 15.6732 105.803 18.3055C105.962 18.6206 106.144 18.9234 106.369 19.329C107.258 17.5565 108.097 15.8788 108.94 14.2046C109.582 12.9292 110.223 11.6526 110.883 10.3874C110.963 10.2326 111.155 10.0417 111.304 10.0338C112.031 9.99761 112.76 10.0168 113.592 10.0168C113.05 11.0991 112.554 12.0989 112.051 13.0953C110.729 15.7105 109.435 18.3405 108.071 20.9331C107.188 22.6141 105.546 22.6232 104.638 20.9411C103.452 18.7438 102.358 16.4957 101.227 14.2679C100.524 12.8817 99.8265 11.4933 99.082 10.0202L99.0832 10.0213Z" fill="#2AA6F8"/>
<path d="M53.9484 17.2865V14.913H68.1036V17.2865H53.9484Z" fill="#2AA6F8"/>
<path d="M53.7699 17.3316V14.9581H67.9251V17.3316H53.7699Z" fill="#2AA6F8"/>
<path d="M53.7699 22.0916V19.7181H67.9251V22.0916H53.7699Z" fill="#2AA6F8"/>
<path d="M68.1292 10.0552C68.1292 10.7782 68.1179 11.4537 68.1337 12.1282C68.1428 12.5168 67.892 12.4807 67.6435 12.4795C66.2709 12.4795 64.8983 12.4795 63.5257 12.4795C60.5738 12.4795 57.6219 12.4795 54.6699 12.4795H53.9594V10.0552H68.1281H68.1292Z" fill="#2AA6F8"/>
<path d="M138.364 10.0439H140.754V22.1431H138.364V10.0439Z" fill="#2AA6F8"/>
</g>
<g clip-path="url(#clip1_1162_26274)">
<path d="M0 15.8222C0.257573 14.5163 0.42138 13.1821 0.791923 11.9089C1.74878 8.62487 3.65346 5.97458 6.41898 3.95241C9.06474 2.01949 12.0201 0.997103 15.303 0.949656C15.582 0.945137 15.8622 0.976769 16.1672 0.993714C16.1672 1.13606 16.1785 1.24451 16.1649 1.34957C16.0554 2.26802 16.0531 2.24656 15.1505 2.2861C10.7322 2.47702 7.1081 4.30601 4.43296 7.80357C1.24267 11.9778 0.581797 16.6367 2.36786 21.5622C3.57325 24.8847 5.81572 27.3904 8.94952 29.068C9.08169 29.1392 9.21387 29.2115 9.34604 29.2838C9.87474 29.5696 10.0137 30.1819 9.60361 30.6055C9.51098 30.7004 9.20257 30.697 9.06249 30.6179C8.05479 30.0418 6.99174 29.5267 6.08233 28.8172C3.8489 27.0707 2.1261 24.8836 1.15795 22.2028C0.676693 20.8709 0.448492 19.4474 0.109581 18.0647C0.0655228 17.8828 0.0361505 17.6986 0 17.5168C0 16.9519 0 16.3871 0 15.8222Z" fill="#2AA6F8"/>
<path d="M29.9541 16.4796C29.6886 10.8989 27.2214 6.70205 22.3625 3.94783C22.2642 3.89248 22.1637 3.84051 22.0654 3.78516C21.5977 3.52533 21.4847 2.81813 21.8926 2.46114C21.9931 2.37303 22.2981 2.40127 22.4337 2.49052C23.717 3.33553 25.1258 4.05629 26.2318 5.09561C30.728 9.32071 32.1582 14.5783 30.6918 20.4878C29.2989 26.0979 25.5449 29.6836 20.1065 31.4584C18.8073 31.8832 17.3704 31.8978 15.9932 32.065C15.7504 32.0944 15.3278 32.2232 15.3143 31.7239C15.2962 31.0845 15.4837 30.863 16.0057 30.7828C17.2472 30.5908 18.5373 30.5388 19.7179 30.1536C25.2308 28.354 28.6177 24.6079 29.6954 18.8656C29.8434 18.0748 29.8739 17.2603 29.9564 16.4796H29.9541Z" fill="#2AA6F8"/>
<path d="M21.2441 19.7648C20.8453 19.7434 20.4228 19.5412 20.2036 19.078C20.0522 18.7583 19.8602 18.643 19.5134 18.6442C16.7467 18.6498 13.9801 18.6453 11.2134 18.6306C10.8564 18.6284 10.6373 18.7368 10.4362 19.0497C10.0611 19.6327 9.24774 19.7219 8.75857 19.287C8.28071 18.8622 8.24117 18.1143 8.67385 17.6726C9.18108 17.1552 9.95945 17.1733 10.3933 17.7743C10.6407 18.1155 10.8994 18.2793 11.3174 18.2781C14.0648 18.2714 16.8134 18.2894 19.5608 18.2612C19.7664 18.2589 20.0127 18.0025 20.1641 17.8059C20.4906 17.3778 20.8577 17.049 21.4282 17.0965C21.9806 17.1417 22.376 17.441 22.5941 17.9517C22.9578 18.8023 22.2992 19.7581 21.2452 19.766L21.2441 19.7648Z" fill="#2AA6F8"/>
<path d="M8.79028 14.5151C8.79141 13.8972 9.14162 13.4284 9.72907 13.2589C10.2679 13.103 10.9446 13.3075 11.2056 13.8068C11.4473 14.2723 11.7919 14.3592 12.2585 14.3581C14.9099 14.3479 17.5613 14.3502 20.2127 14.3592C20.5573 14.3604 20.799 14.2915 20.999 13.9616C21.2984 13.469 21.8666 13.3075 22.3784 13.4973C22.8562 13.6746 23.0912 14.0486 23.0991 14.5411C23.1082 15.0777 22.7828 15.4133 22.3128 15.6019C21.8395 15.7917 21.3142 15.6211 21.0046 15.106C20.7923 14.7524 20.5358 14.697 20.1732 14.6981C17.541 14.7083 14.9076 14.714 12.2754 14.6948C11.7987 14.6914 11.4835 14.7863 11.2293 15.237C10.8904 15.8369 10.3165 16.0165 9.73472 15.8324C9.12468 15.6392 8.79028 15.1726 8.79254 14.5163L8.79028 14.5151Z" fill="#2AA6F8"/>
<path d="M15.7504 8.34249C14.693 8.34927 13.8141 7.4794 13.7949 6.40731C13.7757 5.36685 14.6704 4.45292 15.7187 4.44501C16.7649 4.43598 17.6731 5.33183 17.6777 6.37681C17.6833 7.42856 16.792 8.33684 15.7504 8.34249Z" fill="#2AA6F8"/>
<path d="M17.6663 26.7047C17.6651 27.7689 16.7874 28.6308 15.7153 28.6229C14.6669 28.615 13.8117 27.7644 13.8027 26.7194C13.7936 25.6733 14.6918 24.7514 15.7266 24.7447C16.7456 24.7379 17.6674 25.6688 17.6663 26.7036V26.7047Z" fill="#2AA6F8"/>
<path d="M12.5725 9.15128C13.3011 9.07559 13.6943 9.53651 13.979 10.0867C14.1552 10.4267 14.3665 10.5205 14.7302 10.5137C15.9334 10.4911 17.1388 10.5216 18.3419 10.4911C18.5848 10.4855 18.8638 10.351 19.0547 10.1906C19.4513 9.85735 19.8444 9.78843 20.163 10.0799C20.4522 10.3442 20.4736 10.8368 20.2082 11.1554C19.9246 11.4965 19.5721 11.4751 19.1123 11.1802C18.8627 11.0198 18.5452 10.8922 18.2538 10.8831C17.1636 10.8492 16.0712 10.8944 14.981 10.8583C14.4444 10.8413 14.101 10.9611 13.8073 11.4706C13.3328 12.293 12.3353 12.3935 11.558 11.7925C10.9435 11.3169 10.844 10.2019 11.4337 9.62576C11.7184 9.34785 12.1455 9.21454 12.5081 9.01685C12.5296 9.0609 12.551 9.10609 12.5725 9.15015V9.15128Z" fill="#2AA6F8"/>
<path d="M20.4104 22.3157C20.4171 22.9913 20.024 23.5426 19.3733 23.7719C18.7847 23.9798 18.0606 23.8148 17.7499 23.2183C17.3974 22.5439 16.8913 22.4422 16.2372 22.4603C15.4114 22.4829 14.5833 22.4513 13.7564 22.4569C13.2209 22.4603 12.7046 22.4275 12.2663 22.9043C11.9794 23.2172 11.5083 23.163 11.2191 22.8026C10.9355 22.449 10.983 22.0446 11.3151 21.7373C11.6642 21.4153 12.0008 21.4865 12.3589 21.8028C12.5566 21.9779 12.8628 22.1124 13.1238 22.1191C14.2885 22.153 15.4555 22.1101 16.6202 22.1451C17.089 22.1587 17.3658 22.0355 17.5996 21.6051C17.9781 20.9081 18.6435 20.655 19.31 20.8493C19.9811 21.0459 20.4058 21.6096 20.4126 22.3146L20.4104 22.3157Z" fill="#2AA6F8"/>
<path d="M20.4182 2.05452C20.4126 2.87242 19.7675 3.52878 18.9688 3.53104C18.1238 3.5333 17.4968 2.8792 17.5138 2.01385C17.5296 1.24339 18.2571 0.493267 18.9824 0.500046C19.6839 0.506824 20.4239 1.30778 20.4182 2.05452Z" fill="#2AA6F8"/>
<path d="M12.4933 32.5001C11.68 32.4944 11.0575 31.8392 11.0744 31.0044C11.0914 30.1729 11.6777 29.5821 12.4922 29.5775C13.3259 29.573 13.9552 30.1989 13.9518 31.0303C13.9484 31.846 13.2932 32.5046 12.4933 32.5001Z" fill="#2AA6F8"/>
</g>
<defs>
<clipPath id="clip0_1162_26274">
<rect width="133.899" height="12.3206" fill="white" transform="translate(38.2745 9.91174)"/>
</clipPath>
<clipPath id="clip1_1162_26274">
<rect width="31.2454" height="32" fill="white" transform="translate(0 0.5)"/>
</clipPath>
</defs>
</svg>
